<?xml version="1.0" encoding="UTF-8"?>
<svg width="50px" height="40px" viewBox="0 0 50 40" version="1.1" xmlns="http://www.w3.org/2000/svg" xmlns:xlink="http://www.w3.org/1999/xlink">
    <!-- Generator: Sketch 54.1 (76490) - https://sketchapp.com -->
    <title>hand</title>
    <desc>Created with Sketch.</desc>
    <g id="Business" stroke="none" stroke-width="1" fill="none" fill-rule="evenodd">
        <g id="1-copy" transform="translate(-425.000000, -1322.000000)" fill-rule="nonzero">
            <g id="hand" transform="translate(425.000000, 1322.000000)">
                <path d="M22.6219231,8.69923077 C24.8758654,8.69923077 26.7096154,10.5329808 26.7096154,12.7870192 L26.7096154,15.6724038 C26.7096154,17.9263462 24.8758654,19.76 22.6219231,19.76 C20.3680769,19.76 18.5343269,17.92625 18.5343269,15.6724038 L18.5343269,12.7870192 C18.5343269,10.5329808 20.3679808,8.69923077 22.6219231,8.69923077 Z M22.6219231,18.3173077 C24.0004808,18.3173077 25.1353846,17.2571154 25.2557692,15.9096154 C24.54375,16.5111538 23.6247115,16.8747115 22.6219231,16.8747115 C21.6191346,16.8747115 20.7000962,16.5111538 19.9881731,15.9097115 C20.1085577,17.2571154 21.2434615,18.3173077 22.6219231,18.3173077 Z M22.6219231,15.4319231 C24.0803846,15.4319231 25.2669231,14.2453846 25.2669231,12.7870192 C25.2669231,11.3284615 24.0803846,10.1419231 22.6219231,10.1419231 C21.1635577,10.1419231 19.9770192,11.3284615 19.9770192,12.7870192 C19.9770192,14.2453846 21.1634615,15.4319231 22.6219231,15.4319231 Z M22.6219231,11.1039423 C23.0202885,11.1039423 23.3432692,11.4267308 23.3432692,11.8252885 L23.3432692,13.7488462 C23.3432692,14.1473077 23.0202885,14.4701923 22.6219231,14.4701923 C22.2235577,14.4701923 21.9005769,14.1472115 21.9005769,13.7488462 L21.9005769,11.8252885 C21.9005769,11.4268269 22.2235577,11.1039423 22.6219231,11.1039423 Z M35.6061538,0.0431730769 C39.1858654,0.0431730769 42.0981731,2.95548077 42.0981731,6.53519231 L42.0981731,9.42076923 C42.0981731,9.42461538 42.0975962,9.42836538 42.0975962,9.43221154 C42.09125,13.0065385 39.1817308,15.9125962 35.6059615,15.9125962 C32.02625,15.9125962 29.1138462,13.0002885 29.1138462,9.42057692 C29.1138462,9.41990385 29.1139423,9.41932692 29.1139423,9.41865385 L29.1139423,6.53519231 C29.1139423,2.95548077 32.02625,0.0431730769 35.6061538,0.0431730769 Z M35.6059615,14.47 C37.8915385,14.47 39.8261538,12.9429808 40.4461538,10.8560577 C39.2565385,12.1875 37.5278846,13.0275 35.6061538,13.0275 C33.6840385,13.0275 31.9551923,12.1872115 30.7653846,10.8553846 C31.3852885,12.9426923 33.3200962,14.47 35.6059615,14.47 Z M35.6061538,11.5848077 C38.3903846,11.5848077 40.6554808,9.31951923 40.6554808,6.53528846 C40.6554808,3.75115385 38.3903846,1.48596154 35.6061538,1.48596154 C32.8219231,1.48596154 30.5566346,3.75105769 30.5566346,6.53528846 C30.5566346,9.31951923 32.8218269,11.5848077 35.6061538,11.5848077 Z M35.6065385,3.89028846 C36.0049038,3.89038462 36.3278846,4.21336538 36.3277885,4.61173077 L36.3270192,8.45932692 C36.3269231,8.85759615 36.0040385,9.18048077 35.6056731,9.18048077 L35.6055769,9.18048077 C35.2072115,9.18038462 34.8843269,8.85730769 34.8843269,8.45903846 L34.8850962,4.61144231 C34.8851923,4.21307692 35.2080769,3.89028846 35.6065385,3.89028846 Z" id="Combined-Shape" fill="#512DA8"></path>
                <path d="M48.8153846,24.4528846 C47.8255769,22.7391346 45.63,22.1444231 43.9108654,23.1200962 C43.5983654,23.2741346 39.6077885,25.2352885 36.3189423,26.6192308 C35.9517308,26.77375 35.7794231,27.1967308 35.9338462,27.5639423 C36.0882692,27.9311538 36.5111538,28.1033654 36.8785577,27.9490385 C40.3265385,26.4980769 44.5274038,24.4248077 44.5694231,24.4040385 C44.5831731,24.3972115 44.5967308,24.39 44.61,24.3824038 C45.6435577,23.7865385 46.9697115,24.1416346 47.56625,25.1747115 C48.2570192,26.3694231 47.1783654,27.6811538 46.6503846,28.2169231 C43.0691346,31.1058654 33.1589423,38.5141346 29.8279808,38.5141346 C26.1358654,38.5141346 15.7751923,36.3192308 13.2414423,35.7701923 L13.2414423,23.9875962 C18.2652885,23.2494231 20.9268269,24.1752885 26.5042308,26.1189423 C28.2009615,26.7101923 30.1231731,27.3799038 32.4595192,28.1269231 C32.8077885,28.2786538 33.7740385,28.8225 33.4057692,30.0518269 C33.1819231,30.7991346 32.4602885,31.5126923 31.4034615,31.3149038 C29.9833654,31.0483654 21.6260577,29.9148077 21.2709615,29.8667308 C20.8763462,29.8128846 20.5127885,30.0899038 20.4593269,30.4847115 C20.4058654,30.8795192 20.6825,31.2428846 21.0773077,31.2963462 C21.1638462,31.3080769 29.7530769,32.4729808 31.1375,32.7328846 C31.3524038,32.7731731 31.5609615,32.7922115 31.7625962,32.7922115 C33.2940385,32.7922115 34.4202885,31.6930769 34.7879808,30.4658654 C35.1748077,29.1744231 34.7727885,27.5396154 33.0057692,26.7915385 C33.0032692,26.7903846 33.0006731,26.7892308 32.9980769,26.7881731 C32.9958654,26.7872115 32.99375,26.7861538 32.9914423,26.7851923 C32.9817308,26.7811538 32.9718269,26.7782692 32.9620192,26.7746154 C32.9520192,26.7709615 32.9425,26.7667308 32.9322115,26.7634615 C30.5984615,26.0179808 28.6756731,25.3478846 26.9791346,24.7567308 C21.4170192,22.8185577 18.4857692,21.7988462 13.2415385,22.5308654 L13.2415385,21.9277885 C13.2415385,21.5293269 12.9185577,21.2064423 12.5201923,21.2064423 L10.3567308,21.2064423 L10.3567308,20.4854808 C10.3567308,20.0870192 10.03375,19.7641346 9.63538462,19.7641346 L0.721346154,19.7641346 C0.322980769,19.7641346 0,20.0870192 0,20.4854808 L0,36.35 C0,36.7484615 0.322980769,37.0713462 0.721346154,37.0713462 C1.11971154,37.0713462 1.44269231,36.7484615 1.44269231,36.35 L1.44269231,21.2067308 L8.91403846,21.2067308 L8.91403846,38.5141346 L7.47221154,38.5141346 L7.47221154,37.7931731 C7.47221154,37.3947115 7.14923077,37.0718269 6.75086538,37.0718269 C6.3525,37.0718269 6.02951923,37.3947115 6.02951923,37.7931731 L6.02951923,38.5141346 L0.721346154,38.5141346 C0.322980769,38.5141346 0,38.8370192 0,39.2354808 C0,39.6339423 0.322980769,39.9568269 0.721346154,39.9568269 L9.63538462,39.9568269 C10.03375,39.9568269 10.3567308,39.6339423 10.3567308,39.2354808 L10.3567308,38.4778846 L12.5200962,38.4778846 C12.9184615,38.4778846 13.2414423,38.155 13.2414423,37.7565385 L13.2414423,37.2468269 C16.2595192,37.8989423 26.0822115,39.9568269 29.8279808,39.9568269 C31.7993269,39.9568269 35.2949038,38.2003846 40.5142308,34.5875 C44.2783654,31.9818269 47.5549038,29.3407692 47.5875,29.3144231 C47.6075,29.2982692 47.6265385,29.2810577 47.6446154,29.2629808 C49.2118269,27.6938462 49.6494231,25.8955769 48.8153846,24.4528846 Z M11.7986538,36.3389423 C11.7986538,36.3396154 11.7986538,36.3402885 11.7986538,36.3408654 L11.7986538,37.0353846 L10.3567308,37.0353846 L10.3567308,37.0353846 L10.3567308,22.6490385 L11.79875,22.6490385 L11.79875,36.3389423 L11.7986538,36.3389423 Z" id="Shape" fill="#B11A83"></path>
            </g>
        </g>
    </g>
</svg>