<?xml version="1.0" encoding="UTF-8"?>
<svg width="48px" height="48px" viewBox="0 0 48 48" version="1.1" xmlns="http://www.w3.org/2000/svg" xmlns:xlink="http://www.w3.org/1999/xlink">
    <!-- Generator: Sketch 54.1 (76490) - https://sketchapp.com -->
    <title>Group 6</title>
    <desc>Created with Sketch.</desc>
    <g id="Business" stroke="none" stroke-width="1" fill="none" fill-rule="evenodd">
        <g id="1-copy" transform="translate(-179.000000, -2179.000000)">
            <g id="Group-8" transform="translate(146.000000, 2114.000000)">
                <g id="Group-6" transform="translate(33.000000, 65.000000)">
                    <path d="M38.1176471,31.0588235 C34.6090144,31.0588235 31.7647059,28.2145151 31.7647059,24.7058824 C31.7647059,21.1972496 34.6090144,18.3529412 38.1176471,18.3529412 C41.6262798,18.3529412 44.4705882,21.1972496 44.4705882,24.7058824 C44.4705882,28.2145151 41.6262798,31.0588235 38.1176471,31.0588235 Z M34.5882353,33.1764706 L41.6470588,33.1764706 C45.1556915,33.1764706 48,36.0207791 48,39.5294118 L48,46.5882353 C48,47.3679311 47.3679311,48 46.5882353,48 L29.6470588,48 C28.8673631,48 28.2352941,47.3679311 28.2352941,46.5882353 L28.2352941,39.5294118 C28.2352941,36.0207791 31.0796026,33.1764706 34.5882353,33.1764706 Z M9.88235294,31.0588235 C6.37372024,31.0588235 3.52941176,28.2145151 3.52941176,24.7058824 C3.52941176,21.1972496 6.37372024,18.3529412 9.88235294,18.3529412 C13.3909856,18.3529412 16.2352941,21.1972496 16.2352941,24.7058824 C16.2352941,28.2145151 13.3909856,31.0588235 9.88235294,31.0588235 Z M6.35294118,33.1764706 L13.4117647,33.1764706 C16.9203974,33.1764706 19.7647059,36.0207791 19.7647059,39.5294118 L19.7647059,46.5882353 C19.7647059,47.3679311 19.1326369,48 18.3529412,48 L1.41176471,48 C0.632068941,48 0,47.3679311 0,46.5882353 L0,39.5294118 C0,36.0207791 2.84430847,33.1764706 6.35294118,33.1764706 Z M38.1176471,28.2352941 C40.0668875,28.2352941 41.6470588,26.6551228 41.6470588,24.7058824 C41.6470588,22.7566419 40.0668875,21.1764706 38.1176471,21.1764706 C36.1684066,21.1764706 34.5882353,22.7566419 34.5882353,24.7058824 C34.5882353,26.6551228 36.1684066,28.2352941 38.1176471,28.2352941 Z M45.1764706,39.5294118 C45.1764706,37.5801713 43.5962993,36 41.6470588,36 L34.5882353,36 C32.6389948,36 31.0588235,37.5801713 31.0588235,39.5294118 L31.0588235,45.1764706 L45.1764706,45.1764706 L45.1764706,39.5294118 Z M9.88235294,28.2352941 C11.8315934,28.2352941 13.4117647,26.6551228 13.4117647,24.7058824 C13.4117647,22.7566419 11.8315934,21.1764706 9.88235294,21.1764706 C7.93311247,21.1764706 6.35294118,22.7566419 6.35294118,24.7058824 C6.35294118,26.6551228 7.93311247,28.2352941 9.88235294,28.2352941 Z M16.9411765,39.5294118 C16.9411765,37.5801713 15.3610052,36 13.4117647,36 L6.35294118,36 C4.40370071,36 2.82352941,37.5801713 2.82352941,39.5294118 L2.82352941,45.1764706 L16.9411765,45.1764706 L16.9411765,39.5294118 Z" id="Shape" fill="#B11A83" fill-rule="nonzero"></path>
                    <path d="M32.4705882,10.7093456 L33.5899666,9.58996659 C34.1412953,9.03863859 35.0351753,9.03863859 35.586504,9.58996659 C36.137832,10.1412953 36.137832,11.0351753 35.586504,11.586504 L32.0570922,15.1159158 C31.5057635,15.6672438 30.6118835,15.6672438 30.0605548,15.1159158 L26.5311431,11.586504 C25.9798151,11.0351753 25.9798151,10.1412953 26.5311431,9.58996659 C27.0824718,9.03863859 27.9763518,9.03863859 28.5276805,9.58996659 L29.6470588,10.7093456 L29.6470588,8.47058824 C29.6470588,5.35180376 27.1187845,2.82352941 24,2.82352941 C23.2203042,2.82352941 22.5882353,2.19146047 22.5882353,1.41176471 C22.5882353,0.632068941 23.2203042,1.42108547e-14 24,1.42108547e-14 C28.6781767,1.42108547e-14 32.4705882,3.79241153 32.4705882,8.47058824 L32.4705882,10.7093456 Z M15.5294118,6.23183082 L14.4100334,7.35120988 C13.8587047,7.90253788 12.9648247,7.90253788 12.413496,7.35120988 C11.862168,6.79988118 11.862168,5.90600118 12.413496,5.35467247 L15.9429078,1.82526071 C16.4942365,1.27393271 17.3881165,1.27393271 17.9394452,1.82526071 L21.4688569,5.35467247 C22.0201849,5.90600118 22.0201849,6.79988118 21.4688569,7.35120988 C20.9175282,7.90253788 20.0236482,7.90253788 19.4723195,7.35120988 L18.3529412,6.23183082 L18.3529412,8.47058824 C18.3529412,11.5893727 20.8812155,14.1176471 24,14.1176471 C24.7796958,14.1176471 25.4117647,14.749716 25.4117647,15.5294118 C25.4117647,16.3091075 24.7796958,16.9411765 24,16.9411765 C19.3218233,16.9411765 15.5294118,13.1487649 15.5294118,8.47058824 L15.5294118,6.23183082 Z" id="Combined-Shape" fill="#512DA8"></path>
                </g>
            </g>
        </g>
    </g>
</svg>