<?xml version="1.0" encoding="UTF-8"?>
<svg width="41px" height="40px" viewBox="0 0 41 40" version="1.1" xmlns="http://www.w3.org/2000/svg" xmlns:xlink="http://www.w3.org/1999/xlink">
    <!-- Generator: Sketch 54.1 (76490) - https://sketchapp.com -->
    <title>money</title>
    <desc>Created with Sketch.</desc>
    <g id="Business" stroke="none" stroke-width="1" fill="none" fill-rule="evenodd">
        <g id="1-copy" transform="translate(-752.000000, -1321.000000)" fill-rule="nonzero">
            <g id="money" transform="translate(752.000000, 1321.000000)">
                <path d="M8.61206349,21.5824603 C8.94142857,21.5824603 9.20849206,21.3154762 9.20849206,20.9860317 L9.20849206,20.5725397 C9.20849206,19.6214286 8.48174603,18.8368254 7.55444444,18.7447619 L7.55444444,18.0915079 C7.55444444,17.7620635 7.28738095,17.4950794 6.95801587,17.4950794 C6.62865079,17.4950794 6.3615873,17.7620635 6.3615873,18.0915079 L6.3615873,18.7733333 C5.42047619,18.9557937 4.70753968,19.7857143 4.70753968,20.7792857 C4.70753968,21.9061905 5.62436508,22.8229365 6.75119048,22.8229365 L7.16468254,22.8229365 C7.63388889,22.8229365 8.01555556,23.2046032 8.01555556,23.6738095 C8.01555556,24.1430159 7.63388889,24.5246825 7.16468254,24.5246825 L6.54444444,24.5246825 C6.18928571,24.5246825 5.90031746,24.2357143 5.90031746,23.8804762 C5.90031746,23.5510317 5.63325397,23.2840476 5.30388889,23.2840476 C4.97452381,23.2840476 4.70746032,23.5510317 4.70746032,23.8804762 C4.70746032,24.8315873 5.43412698,25.6161905 6.36150794,25.708254 L6.36150794,26.3615079 C6.36150794,26.6909524 6.62857143,26.9579365 6.95793651,26.9579365 C7.28730159,26.9579365 7.55436508,26.6909524 7.55436508,26.3615079 L7.55436508,25.6796825 C8.49547619,25.4972222 9.2084127,24.6673016 9.2084127,23.6737302 C9.2084127,22.5468254 8.2915873,21.6300794 7.1647619,21.6300794 L6.75126984,21.6300794 C6.28206349,21.6300794 5.90039683,21.2484127 5.90039683,20.7792063 C5.90039683,20.31 6.28206349,19.9283333 6.75126984,19.9283333 L7.37150794,19.9283333 C7.72666667,19.9283333 8.01563492,20.2173016 8.01563492,20.5725397 L8.01563492,20.9860317 C8.01563492,21.3154762 8.28269841,21.5824603 8.61206349,21.5824603 Z" id="Path" fill="#512DA8"></path>
                <path d="M21.9715079,6.31452381 C22.3009524,6.31452381 22.5679365,6.04753968 22.5679365,5.71809524 L22.5679365,5.30460317 C22.5679365,4.35349206 21.8411905,3.56888889 20.9138889,3.4768254 L20.9138889,2.82357143 C20.9138889,2.49412698 20.6469048,2.22714286 20.3174603,2.22714286 C19.9880952,2.22714286 19.7210317,2.49412698 19.7210317,2.82357143 L19.7210317,3.50539683 C18.7799206,3.68785714 18.0669841,4.51777778 18.0669841,5.51134921 C18.0669841,6.63825397 18.9838095,7.555 20.1106349,7.555 L20.524127,7.555 C20.9933333,7.555 21.375,7.93666667 21.375,8.40587302 C21.375,8.87507937 20.9933333,9.25674603 20.524127,9.25674603 L19.9038889,9.25674603 C19.5487302,9.25674603 19.2597619,8.96777778 19.2597619,8.61253968 C19.2597619,8.28309524 18.9926984,8.01611111 18.6633333,8.01611111 C18.3339683,8.01611111 18.0669048,8.28309524 18.0669048,8.61253968 C18.0669048,9.56365079 18.7935714,10.348254 19.7209524,10.4403175 L19.7209524,11.0935714 C19.7209524,11.4230159 19.9880159,11.69 20.317381,11.69 C20.6468254,11.69 20.9138095,11.4230159 20.9138095,11.0935714 L20.9138095,10.411746 C21.8548413,10.2292857 22.5678571,9.39936508 22.5678571,8.40579365 C22.5678571,7.27888889 21.6510317,6.36214286 20.5242063,6.36214286 L20.1107143,6.36214286 C19.6415079,6.36214286 19.2598413,5.98047619 19.2598413,5.51126984 C19.2598413,5.04206349 19.6415079,4.66039683 20.1107143,4.66039683 L20.7309524,4.66039683 C21.0861111,4.66039683 21.3750794,4.94936508 21.3750794,5.30460317 L21.3750794,5.71809524 C21.3750794,6.04761905 21.6420635,6.31452381 21.9715079,6.31452381 Z" id="Path" fill="#512DA8"></path>
                <path d="M33.6769048,11.4515873 C31.9529365,11.4515873 30.3735714,12.0821429 29.156746,13.1242857 L26.2042857,10.6638889 C26.8824603,9.59031746 27.2754762,8.31960317 27.2754762,6.95865079 C27.2754762,3.12198413 24.154127,0.000634920635 20.3174603,0.000634920635 C16.4807937,0.000634920635 13.3594444,3.12198413 13.3594444,6.95865079 C13.3594444,8.97174603 14.2190476,10.7874603 15.5901587,12.059127 L10.7280952,16.3809524 C9.64103175,15.6774603 8.34642857,15.2684921 6.95801587,15.2684921 C3.12134921,15.2685714 0,18.3898413 0,22.2265873 C0,26.0633333 3.12134921,29.1846032 6.95801587,29.1846032 C10.7946825,29.1846032 13.9160317,26.063254 13.9160317,22.2265873 C13.9160317,20.2134921 13.0564286,18.3977778 11.6853175,17.1260317 L16.547381,12.8042063 C17.6344444,13.5076984 18.9290476,13.9166667 20.3174603,13.9166667 C22.3649206,13.9166667 24.2084921,13.0275397 25.4828571,11.6153968 L28.3172222,13.9773016 C27.3193651,15.1818254 26.7188889,16.7268254 26.7188889,18.4095238 C26.7188889,22.2461905 29.8402381,25.3675397 33.6769048,25.3675397 C37.5135714,25.3675397 40.6349206,22.2461905 40.6349206,18.4095238 C40.6349206,14.5728571 37.5135714,11.4515873 33.6769048,11.4515873 Z M12.723254,22.2265873 C12.723254,25.4055556 10.1369841,27.9918254 6.95801587,27.9918254 C3.77904762,27.9918254 1.19277778,25.4055556 1.19277778,22.2265873 C1.19277778,19.047619 3.77904762,16.4613492 6.95801587,16.4613492 C10.1369841,16.4613492 12.723254,19.047619 12.723254,22.2265873 Z M20.3174603,12.7238889 C17.1384921,12.7238889 14.5522222,10.137619 14.5522222,6.95865079 C14.5522222,3.77968254 17.1384921,1.1934127 20.3174603,1.1934127 C23.4964286,1.1934127 26.0826984,3.77968254 26.0826984,6.95865079 C26.0826984,10.137619 23.4964286,12.7238889 20.3174603,12.7238889 Z M33.6769048,24.1748413 C30.4979365,24.1748413 27.9116667,21.5885714 27.9116667,18.4096032 C27.9116667,16.9096032 28.4878571,15.5419048 29.4300794,14.5153175 C29.5249206,14.4803968 29.6124603,14.4215079 29.6819048,14.338254 C29.726746,14.2844444 29.7598413,14.2247619 29.7827778,14.162619 C30.8093651,13.2206349 32.1769048,12.6444444 33.6768254,12.6444444 C36.8557937,12.6444444 39.4420635,15.2307143 39.4420635,18.4096825 C39.4421429,21.5885714 36.855873,24.1748413 33.6769048,24.1748413 Z" id="Shape" fill="#512DA8"></path>
                <path d="M35.330873,17.7654762 C35.6603175,17.7654762 35.9273016,17.4984921 35.9273016,17.1690476 L35.9273016,16.7555556 C35.9273016,15.8044444 35.2005556,15.0198413 34.273254,14.9277778 L34.273254,14.2745238 C34.273254,13.9450794 34.0062698,13.6780952 33.6768254,13.6780952 C33.347381,13.6780952 33.0803968,13.9450794 33.0803968,14.2745238 L33.0803968,14.9563492 C32.1393651,15.1388095 31.4263492,15.9687302 31.4263492,16.9623016 C31.4263492,18.0892063 32.3431746,19.0059524 33.47,19.0059524 L33.8834127,19.0059524 C34.352619,19.0059524 34.7342857,19.387619 34.7342857,19.8568254 C34.7342857,20.3260317 34.352619,20.7076984 33.8834127,20.7076984 L33.2631746,20.7076984 C32.9080159,20.7076984 32.6190476,20.4187302 32.6190476,20.0634921 C32.6190476,19.7340476 32.3520635,19.4670635 32.022619,19.4670635 C31.6931746,19.4670635 31.4261905,19.7340476 31.4261905,20.0634921 C31.4261905,21.0146032 32.1528571,21.7992063 33.0802381,21.8912698 L33.0802381,22.5445238 C33.0802381,22.8739683 33.3472222,23.1409524 33.6766667,23.1409524 C34.0061111,23.1409524 34.2730952,22.8739683 34.2730952,22.5445238 L34.2730952,21.8626984 C35.214127,21.6802381 35.9271429,20.8503175 35.9271429,19.856746 C35.9271429,18.7298413 35.0103175,17.8130952 33.8834921,17.8130952 L33.4700794,17.8130952 C33.000873,17.8130952 32.6192063,17.4314286 32.6192063,16.9622222 C32.6192063,16.4930159 33.000873,16.1113492 33.4700794,16.1113492 L34.0903175,16.1113492 C34.4454762,16.1113492 34.7344444,16.4003175 34.7344444,16.7555556 L34.7344444,17.1690476 C34.7345238,17.4984921 35.0014286,17.7654762 35.330873,17.7654762 Z" id="Path" fill="#512DA8"></path>
                <path d="M12.6834921,31.172619 C13.0128571,31.172619 13.2799206,31.4395238 13.2799206,31.7690476 L13.2799206,39.4030159 C13.2799206,39.7324603 13.0128571,39.9994444 12.6834921,39.9994444 L7.59420635,39.9994444 C7.26484127,39.9994444 6.99777778,39.7324603 6.99777778,39.4030159 L6.99777778,31.7690476 C6.99777778,31.4396032 7.26484127,31.172619 7.59420635,31.172619 L12.6834921,31.172619 Z M12.0870635,38.8065873 L12.0870635,32.3653968 L8.19055556,32.3653968 L8.19055556,38.8065873 L12.0870635,38.8065873 Z M37.4938889,31.172619 C37.8233333,31.172619 38.0902381,31.4395238 38.0903175,31.7690476 L38.0903175,39.4030159 C38.0903175,39.7324603 37.8233333,39.9994444 37.4938889,39.9994444 L32.4046032,39.9994444 C32.0751587,39.9994444 31.8081746,39.7324603 31.8081746,39.4030159 L31.8081746,31.7690476 C31.8081746,31.4396032 32.0751587,31.172619 32.4046032,31.172619 L37.4938889,31.172619 Z M36.8974603,38.8065873 L36.8974603,32.3653968 L33.0009524,32.3653968 L33.0009524,38.8065873 L36.8974603,38.8065873 Z M20.9536508,33.6777778 C20.6242063,33.6777778 20.3572222,33.4107937 20.3571429,33.0812698 L20.3571429,24.7314286 L16.4606349,24.7314286 L16.4606349,38.8065873 L20.3571429,38.8065873 L20.3571429,35.8645238 C20.3571429,35.5350794 20.624127,35.2680952 20.9535714,35.2680952 C21.2830159,35.2680952 21.55,35.5350794 21.55,35.8645238 L21.55,39.4030159 C21.55,39.7324603 21.2830159,39.9994444 20.9535714,39.9994444 L15.8642857,39.9994444 C15.5349206,39.9994444 15.2678571,39.7324603 15.2678571,39.4030159 L15.2678571,24.1350794 C15.2678571,23.8056349 15.5349206,23.5386508 15.8642857,23.5386508 L20.9536508,23.5386508 C21.2830952,23.5386508 21.5500794,23.8056349 21.5500794,24.1350794 L21.5500794,33.0813492 C21.5500794,33.4107937 21.2830952,33.6777778 20.9536508,33.6777778 Z M29.2237302,27.3556349 C29.5531746,27.3556349 29.8201587,27.622619 29.8201587,27.9520635 L29.8201587,39.4030159 C29.8201587,39.7324603 29.5531746,39.9994444 29.2237302,39.9994444 L24.1344444,39.9994444 C23.805,39.9994444 23.5380159,39.7324603 23.5380159,39.4030159 L23.5380159,27.9520635 C23.5380159,27.622619 23.805,27.3556349 24.1344444,27.3556349 L29.2237302,27.3556349 Z M28.627381,38.8065873 L28.627381,28.5484127 L24.730873,28.5484127 L24.730873,38.8065873 L28.627381,38.8065873 Z" id="Combined-Shape" fill="#B11A83"></path>
            </g>
        </g>
    </g>
</svg>