<?xml version="1.0" encoding="UTF-8"?>
<svg width="43px" height="43px" viewBox="0 0 43 43" version="1.1" xmlns="http://www.w3.org/2000/svg" xmlns:xlink="http://www.w3.org/1999/xlink">
    <!-- Generator: Sketch 54.1 (76490) - https://sketchapp.com -->
    <title>no-entry</title>
    <desc>Created with Sketch.</desc>
    <g id="Business" stroke="none" stroke-width="1" fill="none" fill-rule="evenodd">
        <g id="1-copy" transform="translate(-1081.000000, -1323.000000)" fill-rule="nonzero">
            <g id="no-entry" transform="translate(1081.000000, 1323.000000)">
                <path d="M36.629462,6.37305263 C28.2443782,-2.01228265 14.672807,-2.01303704 6.28688499,6.37305263 C2.23432359,10.425614 0.00259844055,15.8135224 0.00259844055,21.544425 C0.00259844055,33.4031209 9.59863938,43 21.4581735,43 C33.3166179,43 42.9136647,33.4038752 42.9136647,21.544425 C42.9136647,15.8135224 40.6818558,10.425614 36.629462,6.37305263 Z M21.4582573,41.7427739 C10.3208382,41.7427739 1.25990838,32.6818441 1.25990838,21.544425 C1.25990838,10.4070058 10.3207544,1.34615984 21.4582573,1.34615984 C32.5955088,1.34615984 41.6563548,10.4070897 41.6565224,21.5445088 C41.6564386,32.6818441 32.5955926,41.7427739 21.4582573,41.7427739 Z" id="Shape" fill="#512DA8"></path>
                <path d="M38.8045244,22.3848109 C38.4584288,22.3570663 38.1545789,22.6128869 38.125577,22.9588148 C37.8765458,25.9317661 36.8411092,28.7640663 35.1210253,31.1941111 L29.503616,25.5767018 C29.4937251,12.5052047 29.5041189,27.6465692 29.5041189,14.544729 C29.5041189,12.9579201 27.8481579,11.8985107 26.4084542,12.5719259 L26.4084542,11.7264269 C26.4084542,10.0748246 24.6281033,9.01994152 23.181694,9.81824951 C22.4921014,7.90621637 19.7747193,7.89925926 19.0826959,9.81816569 C17.6289103,9.01616959 15.8630604,10.0790156 15.8644016,11.7254211 L15.8644016,11.9375712 L11.808152,7.88140546 C22.4085322,0.365961014 37.0634854,7.45576413 38.124655,20.1302865 C38.1536569,20.4762144 38.456501,20.7327895 38.8036023,20.7042904 C39.1495302,20.6752885 39.4065244,20.3713548 39.3776062,20.0253431 C38.1995906,5.95612865 21.7752671,-1.43819493 10.4636686,7.31335283 C10.1641774,7.54503314 10.1361813,7.9874386 10.4038207,8.25499415 C36.4515945,34.3026004 34.813152,32.7829318 35.1922729,32.7829318 C35.3847251,32.7829318 35.5691306,32.6945848 35.6895809,32.5390136 C37.813848,29.793384 39.0895146,26.5169181 39.3786121,23.0637583 C39.4074464,22.7177466 39.1504522,22.4138129 38.8045244,22.3848109 Z M18.954464,15.0274522 L17.1217115,13.1947135 C17.1217115,11.641768 17.0524756,11.4125185 17.3887641,11.074386 C17.9603372,10.4997115 18.9530253,10.9064932 18.9537797,11.7233255 C18.9546179,12.9667212 18.9544503,12.3000117 18.954464,15.0274522 Z M20.2116764,16.2846784 C20.2116764,15.663232 20.2116764,11.1988596 20.2116764,10.555117 C20.2116764,10.047499 20.6246608,9.63468226 21.1321949,9.63468226 C21.6398129,9.63468226 22.0527135,10.0476667 22.0527135,10.555117 C22.0527973,11.4775634 22.0527973,17.232271 22.0527973,18.125883 L20.2116764,16.2846784 Z M23.3100234,19.3831092 L23.3100234,11.7263431 C23.3100234,11.2187251 23.7230078,10.8059084 24.2304581,10.8059084 C24.7381598,10.8059084 25.1510604,11.2188928 25.1510604,11.7263431 C25.1511442,12.8651306 25.1511442,20.1151988 25.1511442,21.2243138 C24.1778187,20.2509045 24.5799903,20.653076 23.3100234,19.3831092 Z M28.245384,24.3184698 L26.0370448,22.1101306 C26.2558168,22.0117251 26.4084542,21.7923665 26.4084542,21.5368811 L26.4084542,14.5446452 C26.4084542,14.0376979 26.8208519,13.6253002 27.3277154,13.6253002 C27.8344951,13.6253002 28.246809,14.0377817 28.246809,14.5446452 C28.2468928,23.1165653 28.2387622,15.6354873 28.245384,24.3184698 Z" id="Shape" fill="#B11A83"></path>
                <path d="M33.2601228,34.2231384 C7.05870565,8.02155361 8.70620078,9.54809552 8.31241131,9.55882456 C8.13806433,9.56502729 7.97402729,9.64356725 7.85977973,9.77550097 C1.82251267,16.7453567 1.92795906,27.4471598 8.7415731,34.2610253 C15.5628986,41.0825185 26.2638635,41.1744698 33.2270975,35.1428187 C33.5031189,34.903846 33.5177875,34.4808869 33.2601228,34.2231384 Z M21.4582573,38.2711735 C12.2351345,38.2711735 4.73159259,30.7675478 4.73159259,21.5445088 C4.73159259,17.7484386 6.02167641,14.0726511 8.37779142,11.1188109 L15.8732865,18.614306 L15.8732865,20.4903801 L14.0606647,18.1106277 C12.3406647,15.7183021 9.11080312,17.8356121 10.1721404,20.1535887 C13.2822222,27.2715556 13.4168382,27.8936725 14.4730624,28.9278519 C14.4961969,28.9507349 15.4561111,29.901345 15.4561111,29.9012612 C15.958616,30.3990721 15.8868655,31.5688733 15.8868655,33.9584327 C15.8868655,34.8595887 16.6200448,35.5928519 17.5212846,35.5928519 L19.9915634,35.5928519 C20.3387485,35.5928519 20.6202183,35.3114659 20.6202183,34.9641969 C20.6202183,34.6169279 20.3387485,34.3355419 19.9915634,34.3355419 L17.5212846,34.3355419 C17.3133255,34.3355419 17.1440916,34.166308 17.1440916,33.9583489 C17.1440916,31.6449825 17.3084639,29.9663899 16.3408382,29.0079006 C14.2179961,26.9056784 14.9852066,28.0286238 11.3219084,19.6447135 C10.8811793,18.6334172 12.2262495,17.7049357 13.0436686,18.8495906 C13.0535595,18.8633372 15.9916413,22.7205127 16.0019513,22.7340078 C16.3653138,23.2113665 17.1305965,22.9530312 17.1305965,22.3531267 L17.1305965,19.8715322 L26.558577,29.2996803 C25.8986569,30.3334405 26.0322671,30.9134795 26.0322671,33.9585166 C26.0322671,34.1664756 25.8630331,34.3357096 25.6550741,34.3357096 L22.9250351,34.3357096 C22.5778499,34.3357096 22.2963801,34.6170955 22.2963801,34.9643645 C22.2963801,35.3116335 22.5778499,35.5930195 22.9250351,35.5930195 L25.6550741,35.5930195 C26.55623,35.5930195 27.2894932,34.8598402 27.2894932,33.9586004 C27.2894932,30.774924 27.2348421,30.7582437 27.4832027,30.2243899 L31.8839552,34.6251423 C28.9300312,36.9810897 25.2542437,38.2711735 21.4582573,38.2711735 Z" id="Shape" fill="#512DA8"></path>
            </g>
        </g>
    </g>
</svg>