<?xml version="1.0" encoding="UTF-8"?>
<svg width="48px" height="60px" viewBox="0 0 48 60" version="1.1" xmlns="http://www.w3.org/2000/svg" xmlns:xlink="http://www.w3.org/1999/xlink">
    <!-- Generator: Sketch 54.1 (76490) - https://sketchapp.com -->
    <title>noun_Pos payment_311044</title>
    <desc>Created with Sketch.</desc>
    <g id="Business" stroke="none" stroke-width="1" fill="none" fill-rule="evenodd">
        <g id="1-copy" transform="translate(-181.000000, -2350.000000)" fill-rule="nonzero">
            <g id="Group-9" transform="translate(148.000000, 2297.000000)">
                <g id="noun_Pos-payment_311044" transform="translate(33.000000, 53.000000)">
                    <path d="M21.315,11.745 L21.315,7.0425 C21.3097123,5.62736624 20.2642619,4.43165231 18.8625,4.2375 L18.8625,11.52 L6.8625,11.52 L6.8625,4.23 C5.46073811,4.42415231 4.41528769,5.61986624 4.41,7.035 L4.41,11.7375 C2.31472043,11.837381 0.665611791,13.5623486 0.66,15.66 L0.66,46.77 C0.664127066,48.9387673 2.42123272,50.6958729 4.59,50.7 L21.15,50.7 C23.3187673,50.6958729 25.0758729,48.9387673 25.08,46.77 L25.08,15.66 C25.0700137,13.5597133 23.413295,11.8369899 21.315,11.745 Z M8.6925,45.57 L4.4475,45.57 L4.4475,41.325 L8.6925,41.325 L8.6925,45.57 Z M8.6925,39.9225 L4.4475,39.9225 L4.4475,35.6775 L8.6925,35.6775 L8.6925,39.9225 Z M8.6925,34.275 L4.4475,34.275 L4.4475,30 L8.6925,30 L8.6925,34.275 Z M15,45.57 L10.7325,45.57 L10.7325,41.325 L15,41.325 L15,45.57 Z M15,39.9225 L10.7325,39.9225 L10.7325,35.6775 L15,35.6775 L15,39.9225 Z M15,34.275 L10.7325,34.275 L10.7325,30 L15,30 L15,34.275 Z M21.285,45.57 L17.0175,45.57 L17.0175,41.325 L21.2625,41.325 L21.2625,45.57 L21.285,45.57 Z M21.285,39.9225 L17.0175,39.9225 L17.0175,35.6775 L21.2625,35.6775 L21.2625,39.9225 L21.285,39.9225 Z M21.285,34.275 L17.0175,34.275 L17.0175,30 L21.2625,30 L21.2625,34.275 L21.285,34.275 Z M21.285,26.6925 L4.4475,26.6925 L4.4475,16.8225 L21.2625,16.8225 L21.2625,26.685 L21.285,26.6925 Z" id="Shape" fill="#B11A83"></path>
                    <path d="M18,0 L7.695,0 L7.695,10.6425 L18,10.6425 L18,0 Z M8.8275,4.7025 L11.8725,4.7025 L11.8725,6.2025 L8.8275,6.2025 L8.8275,4.7025 Z M13.5,8.85 L8.8275,8.85 L8.8275,7.35 L13.5,7.35 L13.5,8.85 Z M14.5125,3.51 L8.8125,3.51 L8.8125,2.01 L14.5125,2.01 L14.5125,3.51 Z M16.83,8.85 L15.33,8.85 L15.33,7.35 L16.83,7.35 L16.83,8.85 Z M16.83,6.18 L15.33,6.18 L15.33,4.68 L16.83,4.68 L16.83,6.18 Z M16.83,3.51 L15.33,3.51 L15.33,2.01 L16.83,2.01 L16.83,3.51 Z" id="Shape" fill="#512DA8"></path>
                    <path d="M47.355,42.6 C47.1972612,41.7566599 46.8017213,40.9759889 46.215,40.35 C44.4207762,38.0524598 42.3812055,35.9575616 40.1325,34.1025 L40.1325,42.06 C40.1383098,42.1048125 40.1383098,42.1501875 40.1325,42.195 C40.1382055,42.2623794 40.1382055,42.3301206 40.1325,42.3975 L40.1325,42.3975 C39.945,43.365 38.6325,45.33 37.1325,46.6425 C36.9675,46.875 36.8625,46.89 36.66,46.6875 C36.5757893,46.6065637 36.4956888,46.5214569 36.42,46.4325 C34.98,45.375 33.87,40.2525 33.42,39.3075 C33.2149241,38.7399633 32.7530756,38.3031548 32.175,38.13 C31.796115,38.0020056 31.381805,38.0306105 31.0241052,38.2094604 C30.6664054,38.3883103 30.3949355,38.7025953 30.27,39.0825 C29.85,40.4025 30.93,46.14 31.02,46.755 C31.1475,47.82 31.2675,48.885 31.4025,49.95 C31.4467994,50.6253491 31.5370078,51.2969006 31.6725,51.96 C32.2126428,54.142831 33.2380777,56.1757557 34.6725,57.9075 C34.9446111,58.273898 35.1036374,58.7118719 35.13,59.1675 C35.3025,60.1125 35.43,59.9925 35.9475,59.9925 L44.1975,59.9925 C44.5935658,59.9633246 44.907347,59.6463416 44.9325,59.25 C45.03,58.5 45.105,57.75 45.195,57 C45.33,55.815 45.4575,54.63 45.6075,53.4525 C45.7875,52.0375 45.975,50.625 46.17,49.215 C46.35,47.9175 46.545,46.6275 46.83,45.345 C46.9125,44.9775 47.07,44.6325 47.1825,44.28 C47.3475065,43.7363047 47.4060766,43.1658824 47.355,42.6 Z" id="Path" fill="#512DA8"></path>
                    <path d="M29.955,47.07 C29.355,43.4325 29.025,39.885 29.37,38.82 L29.37,38.7825 C29.7901488,37.5450214 31.1279278,36.8761318 32.37,37.2825 C33.2061192,37.5234316 33.8808164,38.1425981 34.1925,38.955 C34.4423302,39.5505524 34.652783,40.1618676 34.8225,40.785 C35.235,42.135 36.075,44.8575 36.825,45.6225 C37.8875054,44.6447959 38.7155881,43.439846 39.2475,42.0975 L39.2475,21.3825 C39.2433916,20.4190893 38.4634107,19.6391084 37.5,19.635 L26.07,19.635 L26.07,48.135 L30.1125,48.135 L30.0675,47.7675 C30.0525,47.67 30,47.4225 29.955,47.07 Z M30.75,23.43 C30.75,23.1607612 30.9682612,22.9425 31.2375,22.9425 L33.2475,22.9425 C33.5167388,22.9425 33.735,23.1607612 33.735,23.43 L33.735,25.89 C33.735,26.1592388 33.5167388,26.3775 33.2475,26.3775 L31.2375,26.3775 C30.9682612,26.3775 30.75,26.1592388 30.75,25.89 L30.75,23.43 L30.75,23.43 Z" id="Shape" fill="#512DA8"></path>
                </g>
            </g>
        </g>
    </g>
</svg>