<?xml version="1.0" encoding="UTF-8"?>
<svg width="43px" height="57px" viewBox="0 0 43 57" version="1.1" xmlns="http://www.w3.org/2000/svg" xmlns:xlink="http://www.w3.org/1999/xlink">
    <!-- Generator: Sketch 54.1 (76490) - https://sketchapp.com -->
    <title>Group 11</title>
    <desc>Created with Sketch.</desc>
    <g id="Business" stroke="none" stroke-width="1" fill="none" fill-rule="evenodd">
        <g id="1-copy" transform="translate(-756.000000, -2171.000000)">
            <g id="Group-7" transform="translate(724.000000, 2123.000000)">
                <g id="Group-11" transform="translate(32.000000, 48.000000)">
                    <path d="M13.4934805,4.21495309 L15.7336798,4.21495309 C15.9951035,3.23360905 16.5099069,2.36085636 17.2056959,1.66506735 C18.2312809,0.635460484 19.6510122,6.75015599e-14 21.2195539,6.75015599e-14 C22.7840737,6.75015599e-14 24.203805,0.635460484 25.2334119,1.66506735 L25.2334119,1.66506735 C25.9292009,2.36085636 26.4480262,3.23360905 26.7094499,4.21495309 L28.9456273,4.21495309 L40.9751355,4.21495309 C41.7835378,4.21495309 42.4391078,4.87052308 42.4391078,5.67892534 L42.4391078,55.4378944 C42.4391078,56.2462967 41.7835378,56.9018667 40.9751355,56.9018667 L1.46397226,56.9018667 C0.655569993,56.9018667 3.55271368e-15,56.2462967 3.55271368e-15,55.4378944 L3.55271368e-15,5.67892534 C3.55271368e-15,4.87052308 0.655569993,4.21495309 1.46397226,4.21495309 L13.4934805,4.21495309 Z M30.4095995,7.1428976 L30.4095995,11.2975222 C30.4095995,12.1059244 29.7540295,12.7614944 28.9456273,12.7614944 L13.4934805,12.7614944 C12.6850783,12.7614944 12.0295083,12.1059244 12.0295083,11.2975222 L12.0295083,7.1428976 L2.92794451,7.1428976 L2.92794451,53.9739222 L39.5151852,53.9739222 L39.5151852,7.1428976 L30.4095995,7.1428976 Z M17.0046008,7.1428976 L14.9574528,7.1428976 L14.9574528,9.8335499 L27.4856769,9.8335499 L27.4856769,7.1428976 L25.434507,7.1428976 C24.6261047,7.1428976 23.9705347,6.4873276 23.9705347,5.67892534 C23.9705347,4.9187859 23.6648702,4.23104069 23.1661544,3.73232487 L23.1661544,3.72830297 C22.6714604,3.23360905 21.9837152,2.92794451 21.2195539,2.92794451 C20.4594145,2.92794451 19.7716692,3.23360905 19.2729534,3.73232487 C18.7782595,4.23104069 18.4685731,4.9187859 18.4685731,5.67892534 C18.4685731,6.4873276 17.8130031,7.1428976 17.0046008,7.1428976 Z" id="Shape" fill="#512DA8" fill-rule="nonzero"></path>
                    <path d="M7.77031428,47.5710545 C7.1549633,47.0562511 7.07452527,46.1352355 7.5933506,45.5198846 C8.11217593,44.9045336 9.02916954,44.8240956 9.64452052,45.3429209 L10.2759591,45.8738119 L11.6876466,44.2087446 C12.2104939,43.5933936 13.1315094,43.5169775 13.7468604,44.0358028 C14.3622113,44.55865 14.4386275,45.4796656 13.9157802,46.0950165 L11.5669896,48.8701288 L11.5629677,48.8701288 C11.0441423,49.4814578 10.1311706,49.557874 9.51581966,49.0430705 L7.77031428,47.5710545 Z" id="Path" fill="#B11A83"></path>
                    <path d="M7.77031428,38.7912429 C7.1549633,38.2724175 7.07452527,37.351402 7.5933506,36.736051 C8.11217593,36.1207001 9.02916954,36.0442839 9.64452052,36.5590874 L10.2759591,37.0940003 L11.6876466,35.4249111 C12.2104939,34.8095601 13.1315094,34.7331439 13.7468604,35.2519693 C14.3622113,35.7748165 14.4386275,36.695832 13.9157802,37.311183 L11.5669896,40.0862952 L11.5629677,40.0862952 C11.0441423,40.6976243 10.1311706,40.7780624 9.51581966,40.259237 L7.77031428,38.7912429 Z" id="Path" fill="#B11A83"></path>
                    <path d="M7.77031428,21.2275977 C7.1549633,20.7087724 7.07452527,19.7917788 7.5933506,19.1764278 C8.11217593,18.5610768 9.02916954,18.4806388 9.64452052,18.9994641 L10.2759591,19.5303551 L11.6876466,17.8652878 C12.2104939,17.2459149 13.1315094,17.1694988 13.7468604,17.692346 C14.3622113,18.2111714 14.4386275,19.1362088 13.9157802,19.7515597 L11.5669896,22.526672 L11.5629677,22.5226501 C11.0441423,23.1380011 10.1311706,23.2144172 9.51581966,22.6996138 L7.77031428,21.2275977 L7.77031428,21.2275977 Z" id="Path" fill="#B11A83"></path>
                    <path d="M7.77031428,30.0074093 C7.1549633,29.4926059 7.07452527,28.5715904 7.5933506,27.9562394 C8.11217593,27.3408884 9.02916954,27.2604504 9.64452052,27.7792757 L10.2759591,28.3101668 L11.6876466,26.6450994 C12.2104939,26.0297484 13.1315094,25.9533323 13.7468604,26.4721576 C14.3622113,26.9950049 14.4386275,27.9160204 13.9157802,28.5313714 L11.5669896,31.3064836 L11.5629677,31.3064836 C11.0441423,31.9178127 10.1311706,31.9942288 9.51581966,31.4794254 L7.77031428,30.0074093 Z" id="Path" fill="#B11A83"></path>
                    <path d="M18.2795437,48.001398 C17.4711414,48.001398 16.8155714,47.345828 16.8155714,46.5374257 C16.8155714,45.7330454 17.4711414,45.0774754 18.2795437,45.0774754 L33.7316904,45.0774754 C34.5400927,45.0774754 35.1956627,45.7330454 35.1956627,46.5374257 C35.1956627,47.345828 34.5400927,48.001398 33.7316904,48.001398 L18.2795437,48.001398 Z" id="Path" fill="#B11A83"></path>
                    <path d="M18.2795437,21.6579412 C17.4711414,21.6579412 16.8155714,21.0023712 16.8155714,20.1939689 C16.8155714,19.3855667 17.4711414,18.7299967 18.2795437,18.7299967 L33.7316904,18.7299967 C34.5400927,18.7299967 35.1956627,19.3855667 35.1956627,20.1939689 C35.1956627,21.0023712 34.5400927,21.6579412 33.7316904,21.6579412 L18.2795437,21.6579412 Z" id="Path" fill="#B11A83"></path>
                    <path d="M18.2795437,30.4377528 C17.4711414,30.4377528 16.8155714,29.7862047 16.8155714,28.9778025 C16.8155714,28.1694002 17.4711414,27.5138302 18.2795437,27.5138302 L33.7316904,27.5138302 C34.5400927,27.5138302 35.1956627,28.1694002 35.1956627,28.9778025 C35.1956627,29.7862047 34.5400927,30.4377528 33.7316904,30.4377528 L18.2795437,30.4377528 L18.2795437,30.4377528 Z" id="Path" fill="#B11A83"></path>
                    <path d="M18.2795437,39.2215864 C17.4711414,39.2215864 16.8155714,38.5660164 16.8155714,37.7576141 C16.8155714,36.9492118 17.4711414,36.2936418 18.2795437,36.2936418 L33.7316904,36.2936418 C34.5400927,36.2936418 35.1956627,36.9492118 35.1956627,37.7576141 C35.1956627,38.5660164 34.5400927,39.2215864 33.7316904,39.2215864 L18.2795437,39.2215864 Z" id="Path" fill="#B11A83"></path>
                </g>
            </g>
        </g>
    </g>
</svg>