<?xml version="1.0" encoding="UTF-8"?>
<svg width="40px" height="40px" viewBox="0 0 40 40" version="1.1" xmlns="http://www.w3.org/2000/svg" xmlns:xlink="http://www.w3.org/1999/xlink">
    <!-- Generator: Sketch 54.1 (76490) - https://sketchapp.com -->
    <title>support</title>
    <desc>Created with Sketch.</desc>
    <g id="Business" stroke="none" stroke-width="1" fill="none" fill-rule="evenodd">
        <g id="1-copy" transform="translate(-93.000000, -1323.000000)" fill-rule="nonzero">
            <g id="support" transform="translate(93.000000, 1323.000000)">
                <path d="M38.9828895,25.6253333 L38.5907326,25.6253333 L38.5907326,23.8950588 C40.1420349,22.3173333 39.9655058,19.5022745 39.9361623,19.1452549 L39.9361623,16.1977255 C39.9361623,15.2487059 39.167847,14.4766275 38.223705,14.4766275 L38.1579163,14.4766275 C37.8593308,14.4766275 37.5782265,14.5538039 37.3335675,14.6894118 C37.0195298,14.2931765 36.5354404,14.0385882 35.9933665,14.0385882 L35.9275778,14.0385882 C35.6384353,14.0385882 35.3635743,14.1099608 35.1218808,14.2387451 C34.807531,13.8637647 34.3368647,13.625098 33.8118818,13.625098 L33.7460931,13.625098 C33.5066628,13.625098 33.2764413,13.6747451 33.0665106,13.7658039 C32.7598868,13.2991373 32.233265,12.9905882 31.6363282,12.9905882 L31.5705395,12.9905882 C30.6263194,12.9905882 29.8580821,13.7627451 29.8580821,14.7117647 L29.8580821,16.3703529 C29.1702273,16.2962353 28.6327578,16.4281569 28.2263194,16.7701176 C27.3449224,17.5115294 27.4335772,18.9826667 27.5194225,20.4054902 C27.6365623,22.347451 29.359165,23.9767843 30.0229831,24.5358431 L30.0229831,25.6252549 L29.6923227,25.6252549 C29.344103,25.6252549 29.0619842,25.9087843 29.0619842,26.2587451 L29.0619842,29.5174902 L29.0619842,39.2879216 C29.0619842,39.6378824 29.344103,39.9214118 29.6923227,39.9214118 L38.9830456,39.9214118 C39.3312652,39.9214118 39.6133841,39.6378824 39.6133841,39.2879216 L39.6133841,29.5175686 L39.6133841,26.2588235 C39.613306,25.9090196 39.3311092,25.6253333 38.9828895,25.6253333 Z M28.7777583,20.3288627 C28.7170422,19.3238431 28.6416545,18.0729412 29.0353722,17.7418824 C29.1816213,17.6187451 29.4682665,17.5872941 29.8580041,17.648549 L29.8580041,18.5090196 C29.8580041,18.8589804 30.1401229,19.1425098 30.4883426,19.1425098 C30.8365623,19.1425098 31.1186811,18.8589804 31.1186811,18.5090196 L31.1186811,14.7119216 C31.1186811,14.4614902 31.321354,14.2577255 31.5704614,14.2577255 L31.6362501,14.2577255 C31.8854356,14.2577255 32.0881865,14.4614902 32.0881865,14.7119216 L32.0881865,15.0058039 L32.0881865,17.1576471 C32.0881865,17.5076078 32.3703053,17.7911373 32.718525,17.7911373 C33.0667447,17.7911373 33.3488635,17.5076078 33.3488635,17.1576471 L33.3488635,15.1313725 C33.4265145,14.9860392 33.5775241,14.8923922 33.746015,14.8923922 L33.8118037,14.8923922 C34.0609892,14.8923922 34.2637401,15.0961569 34.2637401,15.3465882 L34.2637401,15.4360784 L34.2637401,17.1578039 C34.2637401,17.5077647 34.5458589,17.7912941 34.8940786,17.7912941 C35.2422983,17.7912941 35.5244171,17.5077647 35.5244171,17.1578039 L35.5244171,15.5541961 C35.6001951,15.4032157 35.7540142,15.3060392 35.9274217,15.3060392 L35.9932104,15.3060392 C36.2423178,15.3060392 36.4449907,15.5098039 36.4449907,15.7601569 L36.4449907,16.1982745 L36.4449907,17.4687843 C36.4449907,17.8187451 36.7271096,18.1022745 37.0753292,18.1022745 C37.4234709,18.1022745 37.7056677,17.8187451 37.7056677,17.4687843 L37.7056677,16.1982745 C37.7056677,15.9479216 37.9084967,15.7441569 38.1577602,15.7441569 L38.2235489,15.7441569 C38.4726563,15.7441569 38.6753292,15.9479216 38.6753292,16.1982745 L38.6753292,19.1734902 C38.6753292,19.1937255 38.6763438,19.2140392 38.6782168,19.2342745 C38.7509511,19.9915294 38.6903912,22.1686275 37.5530192,23.1362353 C37.4114525,23.2566275 37.3299776,23.4334118 37.3299776,23.6198431 L37.3299776,25.6259608 L31.283504,25.6259608 L31.283504,24.2322353 C31.283504,24.0318431 31.1888401,23.8431373 31.0294801,23.7236863 C31.0080187,23.707451 28.8842845,22.0952941 28.7777583,20.3288627 Z M38.352551,38.6545882 L30.3225051,38.6545882 L30.3225051,30.1511373 L38.352551,30.1511373 L38.352551,38.6545882 Z M38.352551,28.8841569 L30.3225051,28.8841569 L30.3225051,26.8923922 L30.6531655,26.8923922 L37.9603941,26.8923922 L38.352551,26.8923922 L38.352551,28.8841569 Z" id="Shape" fill="#512DA8"></path>
                <path d="M26.7788899,10.3824314 L29.6626671,11.6064314 C29.8705687,11.6946667 30.0896303,11.7388235 30.3086918,11.7388235 C30.5202614,11.7388235 30.7319091,11.6977255 30.9336455,11.6152941 C31.3447664,11.4475294 31.6662179,11.1288627 31.8386889,10.7182745 L32.189484,9.88360784 C32.362111,9.47294118 32.3652327,9.01921569 32.1983026,8.60611765 C32.0313725,8.19301961 31.7143693,7.87003922 31.3048093,7.69631373 L27.8816116,6.25035294 L28.039879,5.67521569 C28.0419081,5.66768627 28.0439372,5.66015686 28.045576,5.65262745 C28.1513218,5.2052549 28.0773388,4.74345098 27.8373622,4.35215686 C27.5973856,3.96070588 27.2201346,3.6867451 26.7756121,3.58062745 L26.710994,3.56517647 C26.4202907,3.49576471 26.1292752,3.50564706 25.8600332,3.58086275 C25.6456541,3.12227451 25.2331285,2.76227451 24.7055702,2.63623529 L24.6418106,2.62101961 C24.3608624,2.55396078 24.0771827,2.55952941 23.8127792,2.62854902 C23.7906936,2.58462745 23.7666569,2.54156863 23.7407472,2.49921569 C23.5006926,2.10776471 23.1234416,1.83380392 22.6789191,1.72768627 L22.6143791,1.71223529 C22.3818164,1.65662745 22.1467564,1.65121569 21.9220759,1.69121569 C21.882509,1.58266667 21.8317823,1.47741176 21.7700517,1.37670588 C21.5300751,0.985254902 21.1528241,0.711215686 20.7068188,0.604784314 L20.6437616,0.589803922 C20.1985367,0.483529412 19.7389523,0.557882353 19.3496049,0.799058824 C18.963067,1.03843137 18.6916398,1.41364706 18.5843332,1.85662745 L18.47211,2.27560784 L14.0333626,0.401019608 C14.0310994,0.4 14.0287582,0.39945098 14.026495,0.398509804 C14.0146327,0.39372549 14.0026144,0.389568627 13.990518,0.385411765 C13.9824798,0.382745098 13.9744415,0.379843137 13.9664033,0.377490196 C13.9561018,0.374431373 13.9456443,0.372 13.9351088,0.369411765 C13.9245732,0.366980392 13.9141157,0.364392157 13.9035021,0.362509804 C13.8950737,0.360941176 13.8866452,0.359843137 13.8780607,0.358509804 C13.8651839,0.35654902 13.8522291,0.355058824 13.8394303,0.354039216 C13.8361526,0.353803922 13.8329529,0.353098039 13.8296752,0.352862745 L9.60889669,0.0796862745 C9.3433226,0.0618823529 9.09975612,0.212156863 8.99252756,0.454196078 C8.885299,0.696313725 8.93922544,0.979921569 9.12792898,1.16509804 L12.0949761,4.0774902 C12.0959906,4.0785098 12.0969271,4.07937255 12.0978636,4.08039216 L12.0993464,4.08180392 C12.1010633,4.08360784 12.1029363,4.08494118 12.1047312,4.08658824 C12.1169837,4.09843137 12.1298605,4.10988235 12.1432055,4.12078431 C12.149683,4.12611765 12.1563945,4.1307451 12.163028,4.13584314 C12.1702078,4.14117647 12.1769974,4.14682353 12.1844113,4.15192157 C12.1862843,4.1532549 12.1883914,4.15419608 12.1902644,4.15552941 C12.201034,4.16282353 12.2121159,4.16933333 12.2232758,4.17576471 C12.3036582,4.22752941 12.3877085,4.27403922 12.4753487,4.31113725 L15.1747927,5.45686275 C14.9757097,6.04431373 14.8541996,6.74219608 14.7453322,7.3707451 C14.4008585,9.35678431 15.8108282,11.416549 16.2847722,12.0414118 L16.2869574,14.9217255 L15.7622086,14.9217255 C15.4139889,14.9217255 15.1318701,15.2052549 15.1318701,15.5552157 L15.1318701,18.8141176 L15.1318701,39.2882353 C15.1318701,39.6381961 15.4139889,39.9217255 15.7622086,39.9217255 L25.0530095,39.9217255 C25.4012291,39.9217255 25.683348,39.6381961 25.683348,39.2882353 L25.683348,23.4353725 C25.683348,23.0854118 25.4012291,22.8018824 25.0530095,22.8018824 C24.7047898,22.8018824 24.422671,23.0854118 24.422671,23.4353725 L24.422671,38.6546667 L16.3926251,38.6546667 L16.3926251,19.4476078 L24.422671,19.4476078 L24.422671,20.5036078 L24.422671,21.207451 C24.422671,21.5574118 24.7047898,21.8409412 25.0530095,21.8409412 C25.4012291,21.8409412 25.683348,21.5573333 25.683348,21.207451 L25.683348,20.5036078 L25.683348,18.8141176 L25.683348,15.5552157 C25.683348,15.2052549 25.4012291,14.9216471 25.0530095,14.9216471 L24.788684,14.9216471 L24.794381,13.285098 C25.8590186,12.5763922 26.4566579,11.3454118 26.7788899,10.3824314 Z M30.1239684,8.57207843 L30.8154131,8.86407843 C30.913823,8.90572549 30.9901473,8.98352941 31.0303385,9.08290196 C31.0706077,9.18243137 31.0698273,9.29168627 31.0282314,9.39058824 L30.6774363,10.2254118 C30.6359184,10.3243137 30.5585016,10.4010196 30.4594674,10.4414118 C30.3605112,10.4818824 30.2517218,10.481098 30.1533119,10.4392941 L29.416135,10.1264314 L30.1239684,8.57207843 Z M27.1141547,9.03945098 L27.5429129,7.48180392 L28.961155,8.08078431 L28.2542581,9.6332549 L27.0972198,9.14227451 C27.1047117,9.09945098 27.1102527,9.06470588 27.1141547,9.03945098 Z M12.348844,2.55576471 L11.226456,1.45403922 L12.820759,1.5572549 L12.348844,2.55576471 Z M13.3829675,3.32094118 L14.1000878,1.80360784 L18.1413716,3.5105098 L17.7012974,5.15372549 L13.3829675,3.32094118 Z M24.422671,18.1806275 L16.3926251,18.1806275 L16.3926251,16.1887843 L24.422671,16.1887843 L24.422671,18.1806275 L24.422671,18.1806275 Z M23.8799727,12.3567059 C23.6689494,12.4643137 23.535577,12.6816471 23.5347966,12.9195294 L23.528007,14.856549 L17.5474003,14.856549 L17.5451371,11.8207059 C17.545059,11.6723137 17.4925373,11.5279216 17.3977173,11.4140392 C17.3807043,11.3931765 15.6848698,9.33152941 15.9872793,7.58839216 C16.0826456,7.03866667 16.1883133,6.4305098 16.3397132,5.95129412 L17.4795825,6.43521569 C17.5482587,6.62054902 17.7016096,6.77113725 17.9061555,6.8265098 C18.2417325,6.9172549 18.5882353,6.7172549 18.678607,6.37945098 L19.8037265,2.17819608 C19.8054434,2.17207843 19.8069262,2.16596078 19.8083309,2.15984314 C19.8362696,2.04196078 19.9080675,1.94180392 20.0109258,1.87811765 C20.1136279,1.8145098 20.2347478,1.79498039 20.3532143,1.82321569 L20.4163496,1.83819608 C20.5336455,1.86627451 20.6333041,1.9385098 20.6966735,2.04188235 C20.7599649,2.14517647 20.7794752,2.26698039 20.7514584,2.3852549 L20.6874646,2.65623529 L19.9449029,5.24196078 C19.848366,5.57819608 20.0412057,5.92933333 20.3757682,6.02635294 C20.434143,6.04321569 20.4929861,6.05137255 20.5508926,6.05137255 C20.824583,6.05137255 21.0764999,5.8707451 21.1561799,5.59341176 L21.8736904,3.09490196 C21.9822456,2.96494118 22.1549507,2.90517647 22.322349,2.94533333 L22.3868891,2.96078431 C22.5044191,2.98886275 22.6039216,3.06109804 22.667291,3.16447059 C22.7294118,3.26588235 22.748844,3.3852549 22.7230124,3.50156863 L22.062628,5.74313725 C21.9638279,6.07866667 22.1543264,6.43113725 22.4881865,6.53035294 C22.547888,6.54807843 22.6081358,6.55662745 22.667369,6.55662745 C22.9393425,6.55662745 23.1904009,6.37835294 23.2714857,6.1027451 L23.8827822,4.02760784 C23.9894644,3.88133333 24.1712223,3.81129412 24.3504048,3.85427451 L24.4141645,3.8694902 C24.6565603,3.92745098 24.8070237,4.17262745 24.7493513,4.41639216 L24.6539069,4.82086275 L24.1164374,6.54227451 C24.0122525,6.87607843 24.1970539,7.23160784 24.5291972,7.33639216 C24.5920203,7.35615686 24.6555458,7.36564706 24.7180568,7.36564706 C24.9862062,7.36564706 25.2347673,7.19231373 25.319364,6.92156863 L25.863545,5.17858824 C25.8658863,5.17090196 25.867369,5.16321569 25.8693981,5.15552941 C25.8713491,5.14878431 25.8736904,5.14227451 25.8752512,5.13537255 C25.9328456,4.89176471 26.1768023,4.74047059 26.418886,4.79843137 L26.483504,4.81388235 C26.7229343,4.87105882 26.8725393,5.11105882 26.8207199,5.35168627 L25.8884402,8.73945098 C25.8811043,8.76588235 25.8754853,8.79380392 25.8717393,8.82086275 C25.8679934,8.84768627 25.4727149,11.5450196 23.8799727,12.3567059 Z" id="Shape" fill="#B11A83"></path>
                <path d="M12.4686372,22.6389804 L12.4686372,19.6917647 C12.4686372,18.7426667 11.7003219,17.9705882 10.7560238,17.9705882 L10.6902351,17.9705882 C10.3916496,17.9705882 10.1106234,18.0477647 9.8659643,18.1833725 C9.55192664,17.7870588 9.06775924,17.532549 8.5256853,17.532549 L8.4598966,17.532549 C8.17083211,17.532549 7.89604917,17.604 7.65435567,17.7328627 C7.33992781,17.3577255 6.86926154,17.1190588 6.34420057,17.1190588 L6.27841186,17.1190588 C6.0390596,17.1190588 5.80883816,17.1687059 5.59898546,17.2596863 C5.29236172,16.793098 4.76573993,16.484549 4.16880304,16.484549 L4.10301434,16.484549 C3.15863818,16.484549 2.39040094,17.2567059 2.39040094,18.2057255 L2.39040094,19.8643922 C1.70239001,19.7898039 1.16538874,19.9221961 0.758794264,20.2640784 C-0.122602673,21.0053333 -0.0339479075,22.4766275 0.0518973759,23.8995294 C0.169037167,25.8414902 1.89148376,27.4708235 2.55530192,28.0298824 L2.55530192,29.1192941 L2.2246415,29.1192941 C1.87642181,29.1192941 1.59430299,29.4028235 1.59430299,29.7527843 L1.59430299,33.0116863 L1.59430299,39.2882353 C1.59430299,39.6381961 1.87642181,39.9217255 2.2246415,39.9217255 L11.5155204,39.9217255 C11.8637401,39.9217255 12.1458589,39.6381961 12.1458589,39.2882353 L12.1458589,33.0116863 L12.1458589,29.7527843 C12.1458589,29.4028235 11.8637401,29.1192941 11.5155204,29.1192941 L11.1233636,29.1192941 L11.1233636,27.3890196 C12.6745098,25.8112941 12.4979807,22.9960784 12.4686372,22.6389804 Z M10.8850259,38.6545882 L2.85482392,38.6545882 L2.85482392,33.6450196 L10.8850259,33.6450196 L10.8850259,38.6545882 Z M10.8850259,32.3781176 L2.85482392,32.3781176 L2.85482392,30.3862745 L3.1854063,30.3862745 L10.4927909,30.3862745 L10.8850259,30.3862745 L10.8850259,32.3781176 Z M10.0855721,26.6296471 C9.94400546,26.7500392 9.86253048,26.9268235 9.86253048,27.1132549 L9.86253048,29.1193725 L3.81574481,29.1193725 L3.81574481,29.1192941 L3.81574481,27.7254902 C3.81574481,27.5249412 3.72123695,27.3362353 3.56109648,27.2168627 C2.96509609,26.7723137 1.39896595,25.2962353 1.31015511,23.8227451 C1.24943908,22.8177255 1.17405131,21.5667451 1.567769,21.2356863 C1.71386206,21.1127059 2.00089747,21.0812549 2.39024485,21.1423529 L2.39024485,22.0028235 C2.39024485,22.3527843 2.67236367,22.6363137 3.02058336,22.6363137 C3.36880304,22.6363137 3.65092186,22.3527843 3.65092186,22.0028235 L3.65092186,18.2054902 C3.65092186,17.9550588 3.85367281,17.7512941 4.10285826,17.7512941 L4.168725,17.7512941 C4.41791045,17.7512941 4.6206614,17.9550588 4.6206614,18.2054902 L4.6206614,18.4993725 L4.6206614,20.6512157 C4.6206614,21.0011765 4.90278022,21.2847059 5.2509999,21.2847059 C5.59921959,21.2847059 5.88133841,21.0011765 5.88133841,20.6512157 L5.88133841,18.6249412 C5.95906741,18.4795294 6.10992098,18.3858824 6.27833382,18.3858824 L6.34412252,18.3858824 C6.59330797,18.3858824 6.79605892,18.5896471 6.79605892,18.8400784 L6.79605892,18.9297255 L6.79605892,20.6513725 C6.79605892,21.0013333 7.07817774,21.2848627 7.42639742,21.2848627 C7.77461711,21.2848627 8.05673593,21.0013333 8.05673593,20.6513725 L8.05673593,19.0477647 C8.13259194,18.8967059 8.28633304,18.7995294 8.45974051,18.7995294 L8.52552922,18.7995294 C8.77471466,18.7995294 8.97746561,19.0032941 8.97746561,19.2536471 L8.97746561,19.6918431 L8.97746561,20.9623529 C8.97746561,21.3123137 9.25958443,21.5958431 9.60780412,21.5958431 C9.9560238,21.5958431 10.2381426,21.3122353 10.2381426,20.9623529 L10.2381426,19.6917647 C10.2381426,19.4413333 10.4408936,19.2375686 10.690079,19.2375686 L10.7558677,19.2375686 C11.0050532,19.2375686 11.2078041,19.4413333 11.2078041,19.6917647 L11.2078041,22.6668235 C11.2078041,22.6870588 11.2088187,22.7073725 11.2106916,22.7276078 C11.283504,23.4848627 11.2229441,25.6620392 10.0855721,26.6296471 Z" id="Shape" fill="#512DA8"></path>
            </g>
        </g>
    </g>
</svg>