<?xml version="1.0" encoding="UTF-8"?>
<svg width="336px" height="259px" viewBox="0 0 336 259" version="1.1" xmlns="http://www.w3.org/2000/svg" xmlns:xlink="http://www.w3.org/1999/xlink">
    <!-- Generator: Sketch 55.2 (78181) - https://sketchapp.com -->
    <title>Combined Shape</title>
    <desc>Created with Sketch.</desc>
    <g id="Sticker" stroke="none" stroke-width="1" fill="none" fill-rule="evenodd">
        <g id="Artboard-Copy-10" transform="translate(-172.000000, -213.000000)" fill="#350A61" fill-rule="nonzero">
            <g id="Group" transform="translate(172.000000, 213.000000)">
                <path d="M278.55731,188.472778 C280.462449,174.773799 281.781583,160.780321 282.514753,146.491924 C283.247922,132.203525 283.891936,118.059108 284.446815,104.058248 C285.001693,90.0573876 285.682173,76.4297529 286.488275,63.1749352 C287.294376,49.9201174 288.722907,37.4769864 290.77391,25.845169 C291.559401,21.3904304 292.887218,17.477946 294.757402,14.1075985 C296.627586,10.737251 298.801714,7.99469902 301.279853,5.87986087 C303.757992,3.76502253 306.416326,2.2561425 309.254935,1.35317521 C312.093543,0.450207928 314.935846,0.249647862 317.781929,0.751489185 C320.875497,1.29696864 323.601535,2.47937736 325.960121,4.29875032 C328.318708,6.11812329 330.269722,8.43975581 331.813221,11.2637174 C333.356721,14.0876791 334.36892,17.3920665 334.849848,21.1769785 C335.330778,24.9618907 335.178499,29.0816542 334.393008,33.5363929 C332.342005,45.1682103 329.428583,57.3495149 325.652656,70.0806723 C321.876729,82.8118296 317.82431,95.8449004 313.495277,109.180276 C309.166245,122.515651 304.90281,136.021867 300.704844,149.699328 C296.506878,163.376788 292.960407,176.977527 290.065327,190.501952 L278.55731,188.472778 Z M279.293082,219.032589 C282.015422,219.512611 284.521251,220.496706 286.810642,221.984902 C289.100034,223.473099 290.989102,225.24156 292.477903,227.290336 C293.966704,229.339112 295.024259,231.662689 295.650598,234.261136 C296.276937,236.859582 296.361004,239.458065 295.902801,242.056663 C295.400959,244.902746 294.416865,247.408574 292.950488,249.574223 C291.48411,251.739872 289.695624,253.561615 287.584976,255.039507 C285.474328,256.517398 283.094336,257.533108 280.444927,258.086666 C277.795519,258.640224 275.109685,258.676992 272.387345,258.19697 C269.541262,257.695128 266.968108,256.73106 264.667807,255.304734 C262.367506,253.878408 260.447503,252.104493 258.90774,249.982936 C257.367977,247.861379 256.279487,245.532347 255.642239,242.995772 C255.004989,240.459197 254.937287,237.767908 255.439128,234.921826 C255.897331,232.323227 256.865061,229.910205 258.342349,227.682685 C259.819636,225.455164 261.639058,223.638876 263.800667,222.233766 C265.962277,220.828656 268.373204,219.8184 271.033522,219.20297 C273.69384,218.587541 276.446999,218.530748 279.293082,219.032589 Z M222.598158,118.85 L222.744737,158.96 C225.33475,155.809985 227.959724,153.692506 230.619737,152.6075 C233.27975,151.522495 236.394719,150.98 239.964737,150.98 C246.754771,150.98 251.88222,152.852482 255.347237,156.5975 C258.812254,160.342519 260.544737,165.399969 260.544737,171.77 L260.544737,206 L241.539737,206 L241.539737,178.805 C241.539737,176.074987 241.329739,173.870009 240.909737,172.19 C240.489735,170.509992 239.789742,169.215005 238.809737,168.305 C237.129728,166.834993 235.099749,166.1 232.719737,166.1 C229.499721,166.1 227.032245,167.062491 225.317237,168.9875 C223.602228,170.91251 222.744737,173.659983 222.744737,177.23 L222.744737,206 L203.739737,206 L203.593158,139 L203.593158,82.99 L197.293158,82.99 L197.293158,67.135 L203.593158,67.135 L203.593158,50.965 L222.598158,50.965 L222.598158,67.135 L243.413158,67.135 L243.413158,82.99 L222.598158,82.99 L222.598158,118.85 Z M61.31,153.29 C56.549976,147.479971 50.670035,144.575 43.67,144.575 C40.589985,144.575 37.737513,145.134995 35.1125,146.255 C32.487487,147.375006 30.230009,148.897491 28.34,150.8225 C26.449991,152.74751 24.962505,155.039987 23.8775,157.7 C22.792495,160.360014 22.25,163.229985 22.25,166.31 C22.25,169.460016 22.792495,172.364987 23.8775,175.025 C24.962505,177.685014 26.46749,179.994991 28.3925,181.955 C30.31751,183.91501 32.574987,185.454995 35.165,186.575 C37.755013,187.695006 40.554985,188.255 43.565,188.255 C50.145033,188.255 56.059974,185.455028 61.31,179.855 L61.31,204.215 L59.21,204.95 C56.059984,206.070006 53.120014,206.892498 50.39,207.4175 C47.659986,207.942503 44.965013,208.205 42.305,208.205 C36.844973,208.205 31.612525,207.172511 26.6075,205.1075 C21.602475,203.04249 17.192519,200.137519 13.3775,196.3925 C9.562481,192.647482 6.500012,188.202526 4.19,183.0575 C1.879988,177.912475 0.725,172.295031 0.725,166.205 C0.725,160.11497 1.862489,154.532526 4.1375,149.4575 C6.412511,144.382475 9.457481,140.007519 13.2725,136.3325 C17.087519,132.657482 21.514975,129.787511 26.555,127.7225 C31.595025,125.65749 36.879972,124.625 42.41,124.625 C45.560016,124.625 48.657485,124.957497 51.7025,125.6225 C54.747515,126.287504 57.949983,127.319993 61.31,128.72 L61.31,153.29 Z M91.566579,178.91 C91.566579,180.660009 91.881576,182.287493 92.511579,183.7925 C93.141582,185.297508 93.999073,186.609995 95.084079,187.73 C96.169084,188.850006 97.464071,189.724997 98.969079,190.355 C100.474086,190.985004 102.10157,191.3 103.851579,191.3 C105.531587,191.3 107.124071,190.985004 108.629079,190.355 C110.134086,189.724997 111.429074,188.850006 112.514079,187.73 C113.599084,186.609995 114.474076,185.315008 115.139079,183.845 C115.804082,182.374993 116.136579,180.800009 116.136579,179.12 C116.136579,177.439992 115.804082,175.847508 115.139079,174.3425 C114.474076,172.837493 113.599084,171.525006 112.514079,170.405 C111.429074,169.284995 110.134086,168.410004 108.629079,167.78 C107.124071,167.149997 105.531587,166.835 103.851579,166.835 C102.10157,166.835 100.474086,167.149997 98.969079,167.78 C97.464071,168.410004 96.169084,169.284995 95.084079,170.405 C93.999073,171.525006 93.141582,172.802493 92.511579,174.2375 C91.881576,175.672508 91.566579,177.229992 91.566579,178.91 Z M115.506579,152.135 L134.616579,152.135 L134.616579,206 L115.506579,206 L115.506579,200.015 C111.446559,205.125026 105.951614,207.68 99.021579,207.68 C95.101559,207.68 91.496595,206.962508 88.206579,205.5275 C84.916562,204.092493 82.046591,202.080013 79.596579,199.49 C77.146567,196.899987 75.239086,193.855018 73.874079,190.355 C72.509072,186.854983 71.826579,183.040021 71.826579,178.91 C71.826579,175.059981 72.491572,171.402518 73.821579,167.9375 C75.151586,164.472483 77.006567,161.445013 79.386579,158.855 C81.766591,156.264987 84.601562,154.217508 87.891579,152.7125 C91.181595,151.207493 94.821559,150.455 98.811579,150.455 C105.531613,150.455 111.096557,152.799977 115.506579,157.49 L115.506579,152.135 Z M184.613158,165.995 C181.11314,164.174991 177.683175,163.265 174.323158,163.265 C172.573149,163.265 171.155663,163.614997 170.070658,164.315 C168.985652,165.015004 168.443158,165.959994 168.443158,167.15 C168.443158,167.780004 168.530657,168.287498 168.705658,168.6725 C168.880659,169.057502 169.265655,169.424999 169.860658,169.775 C170.455661,170.125002 171.330652,170.439999 172.485658,170.72 C173.640664,171.000002 175.163148,171.349998 177.053158,171.77 C182.303184,172.820006 186.223145,174.692487 188.813158,177.3875 C191.403171,180.082514 192.698158,183.529979 192.698158,187.73 C192.698158,190.880016 192.068164,193.714988 190.808158,196.235 C189.548152,198.755013 187.798169,200.872492 185.558158,202.5875 C183.318147,204.302509 180.623174,205.632496 177.473158,206.5775 C174.323142,207.522505 170.858177,207.995 167.078158,207.995 C159.798121,207.995 152.623193,205.930021 145.553158,201.8 L152.483158,188.36 C157.803184,192.000019 162.843134,193.82 167.603158,193.82 C169.353167,193.82 170.788152,193.435004 171.908158,192.665 C173.028163,191.894997 173.588158,190.915006 173.588158,189.725 C173.588158,189.024997 173.500659,188.447503 173.325658,187.9925 C173.150657,187.537498 172.783161,187.117502 172.223158,186.7325 C171.663155,186.347498 170.840663,185.997502 169.755658,185.6825 C168.670652,185.367499 167.253167,185.035002 165.503158,184.685 C159.623128,183.494994 155.51067,181.727512 153.165658,179.3825 C150.820646,177.037489 149.648158,173.800021 149.648158,169.67 C149.648158,166.659985 150.208152,163.947512 151.328158,161.5325 C152.448163,159.117488 154.058147,157.070009 156.158158,155.39 C158.258168,153.709992 160.795643,152.415005 163.770658,151.505 C166.745673,150.594996 170.05314,150.14 173.693158,150.14 C179.643188,150.14 185.41813,151.294989 191.018158,153.605 L184.613158,165.995 Z M87.15,93.805 C87.15,95.555009 87.464997,97.182493 88.095,98.6875 C88.725003,100.192508 89.582495,101.504995 90.6675,102.625 C91.752505,103.745006 93.047492,104.619997 94.5525,105.25 C96.057507,105.880004 97.684991,106.195 99.435,106.195 C101.115008,106.195 102.707492,105.880004 104.2125,105.25 C105.717508,104.619997 107.012495,103.745006 108.0975,102.625 C109.182505,101.504995 110.057497,100.192508 110.7225,98.6875 C111.387503,97.182493 111.72,95.590009 111.72,93.91 C111.72,92.159992 111.387503,90.550008 110.7225,89.08 C110.057497,87.609993 109.165006,86.315006 108.045,85.195 C106.924994,84.074995 105.612508,83.200004 104.1075,82.57 C102.602492,81.939997 101.045008,81.625 99.435,81.625 C97.754992,81.625 96.180007,81.957497 94.71,82.6225 C93.239993,83.287504 91.945006,84.162495 90.825,85.2475 C89.704994,86.332506 88.812503,87.609993 88.1475,89.08 C87.482497,90.550008 87.15,92.125 87.15,93.805 Z M129.78,67.135 L129.78,117.325 C129.78,120.335015 129.605002,123.029988 129.255,125.41 C128.904998,127.790012 128.415003,129.889991 127.785,131.71 C126.944996,134.020012 125.632509,136.17249 123.8475,138.1675 C122.062491,140.16251 119.910013,141.894993 117.39,143.365 C114.869987,144.835008 112.017516,145.989996 108.8325,146.83 C105.647484,147.670005 102.200019,148.09 98.49,148.09 C94.289979,148.09 90.440017,147.565006 86.94,146.515 C83.439982,145.464995 80.377513,144.01251 77.7525,142.1575 C75.127487,140.302491 72.975008,138.132513 71.295,135.6475 C69.614992,133.162488 68.495003,130.450015 67.935,127.51 L89.355,127.51 C90.685007,131.080018 93.694976,132.865 98.385,132.865 C102.37502,132.865 105.437489,131.745012 107.5725,129.505 C109.707511,127.264989 110.775,124.15002 110.775,120.16 L110.775,115.015 C109.374993,116.345007 108.027506,117.447496 106.7325,118.3225 C105.437494,119.197505 104.125007,119.914998 102.795,120.475 C101.464993,121.035003 100.065007,121.437499 98.595,121.6825 C97.124993,121.927502 95.515009,122.05 93.765,122.05 C89.914981,122.05 86.380016,121.385007 83.16,120.055 C79.939984,118.724994 77.157512,116.870012 74.8125,114.49 C72.467488,112.109988 70.647506,109.257517 69.3525,105.9325 C68.057493,102.607484 67.41,98.915021 67.41,94.855 C67.41,90.72498 68.109993,86.892518 69.51,83.3575 C70.91,79.822483 72.817488,76.742514 75.2325,74.1175 C77.647512,71.492487 80.517483,69.427508 83.8425,67.9225 C87.167517,66.417493 90.78998,65.665 94.71,65.665 C101.080032,65.665 106.434978,68.044977 110.775,72.805 L110.775,67.135 L129.78,67.135 Z M177.711579,86.245 C177.081576,83.584987 175.786589,81.450008 173.826579,79.84 C171.866569,78.229992 169.486593,77.425 166.686579,77.425 C163.746564,77.425 161.349088,78.194993 159.494079,79.735 C157.63907,81.275008 156.466581,83.444986 155.976579,86.245 L177.711579,86.245 Z M155.451579,97.27 C155.451579,105.460041 159.30154,109.555 167.001579,109.555 C171.1316,109.555 174.246568,107.875017 176.346579,104.515 L194.721579,104.515 C191.01156,116.835062 181.736653,122.995 166.896579,122.995 C162.346556,122.995 158.181598,122.312507 154.401579,120.9475 C150.62156,119.582494 147.384092,117.640013 144.689079,115.12 C141.994066,112.599988 139.911586,109.590018 138.441579,106.09 C136.971572,102.589983 136.236579,98.670022 136.236579,94.33 C136.236579,89.849978 136.936572,85.807518 138.336579,82.2025 C139.736579,78.597482 141.731566,75.535013 144.321579,73.015 C146.911592,70.494988 150.044061,68.552507 153.719079,67.1875 C157.394097,65.822494 161.541556,65.14 166.161579,65.14 C170.711602,65.14 174.806561,65.822494 178.446579,67.1875 C182.086597,68.552507 185.166566,70.529987 187.686579,73.12 C190.206592,75.710013 192.131572,78.877482 193.461579,82.6225 C194.791586,86.367519 195.456579,90.584977 195.456579,95.275 L195.456579,97.27 L155.451579,97.27 Z" id="Combined-Shape"></path>
            </g>
        </g>
    </g>
</svg>