<?xml version="1.0" encoding="UTF-8"?>
<svg width="1440px" height="725px" viewBox="0 0 1440 725" version="1.1" xmlns="http://www.w3.org/2000/svg" xmlns:xlink="http://www.w3.org/1999/xlink">
    <!-- Generator: Sketch 54.1 (76490) - https://sketchapp.com -->
    <title>gradient-bg</title>
    <desc>Created with Sketch.</desc>
    <defs>
        <rect id="path-1" x="0" y="0" width="1440" height="725"></rect>
        <linearGradient x1="78.7270533%" y1="33.1180008%" x2="20.9063005%" y2="62.0468668%" id="linearGradient-3">
            <stop stop-color="#794C9C" offset="0%"></stop>
            <stop stop-color="#442563" offset="100%"></stop>
        </linearGradient>
        <linearGradient x1="78.7270533%" y1="37.9722587%" x2="20.9063005%" y2="58.5829051%" id="linearGradient-4">
            <stop stop-color="#794C9C" offset="0%"></stop>
            <stop stop-color="#442563" offset="100%"></stop>
        </linearGradient>
        <path d="M0,0.3894737 L1476.31579,0.3894737 L1476.31579,795.631579 C1206.12617,852.148339 964.93387,880.40672 752.738895,880.40672 C540.543921,880.40672 289.630956,852.148339 0,795.631579 L0,0.3894737 Z" id="path-5"></path>
        <linearGradient x1="78.7270533%" y1="2.55034605%" x2="20.9063005%" y2="83.8597137%" id="linearGradient-7">
            <stop stop-color="#794C9C" offset="0%"></stop>
            <stop stop-color="#442563" offset="100%"></stop>
        </linearGradient>
        <linearGradient x1="78.7270533%" y1="37.9722587%" x2="20.9063005%" y2="58.5829051%" id="linearGradient-8">
            <stop stop-color="#671CB2" offset="0%"></stop>
            <stop stop-color="#7106DC" offset="100%"></stop>
        </linearGradient>
    </defs>
    <g id="Page-1" stroke="none" stroke-width="1" fill="none" fill-rule="evenodd">
        <g id="gradient-bg" transform="translate(0.000000, 0.000000)">
            <g id="Mask" fill="#D8D8D8" fill-opacity="0" fill-rule="nonzero">
                <rect id="path-1" x="0" y="0" width="1440" height="725"></rect>
            </g>
            <g id="gradient-ring-Clipped">
                <mask id="mask-2" fill="white">
                    <use xlink:href="#path-1"></use>
                </mask>
                <g id="path-1"></g>
                <g id="gradient-ring" mask="url(#mask-2)">
                    <g transform="translate(0.000000, -171.000000)" id="Group-7">
                        <g>
                            <g id="Group">
                                <g id="Mask" opacity="0.2" transform="translate(0.000000, 15.000000)">
                                    <g id="path-4-link" fill="#000000" fill-rule="nonzero">
                                        <path d="M0,0 L1476.31579,0 L1476.31579,795.242105 C1206.12617,851.758866 964.93387,880.017246 752.738895,880.017246 C540.543921,880.017246 289.630956,851.758866 0,795.242105 L0,0 Z" id="path-4"></path>
                                    </g>
                                    <g id="path-4-link" fill="url(#linearGradient-4)">
                                        <path d="M0,0 L1476.31579,0 L1476.31579,795.242105 C1206.12617,851.758866 964.93387,880.017246 752.738895,880.017246 C540.543921,880.017246 289.630956,851.758866 0,795.242105 L0,0 Z" id="path-4"></path>
                                    </g>
                                </g>
                                <g id="Mask">
                                    <g id="path-7-link" fill="#000000" fill-rule="nonzero">
                                        <path d="M0,0.3894737 L1476.31579,0.3894737 L1476.31579,795.631579 C1206.12617,852.148339 964.93387,880.40672 752.738895,880.40672 C540.543921,880.40672 289.630956,852.148339 0,795.631579 L0,0.3894737 Z" id="path-7"></path>
                                    </g>
                                    <g id="path-7-link" fill="url(#linearGradient-4)">
                                        <path d="M0,0.3894737 L1476.31579,0.3894737 L1476.31579,795.631579 C1206.12617,852.148339 964.93387,880.40672 752.738895,880.40672 C540.543921,880.40672 289.630956,852.148339 0,795.631579 L0,0.3894737 Z" id="path-7"></path>
                                    </g>
                                </g>
                                <g id="Group-28-Clipped">
                                    <mask id="mask-6" fill="white">
                                        <use xlink:href="#path-5"></use>
                                    </mask>
                                    <g id="path-7"></g>
                                    <g id="Group-28" mask="url(#mask-6)">
                                        <g transform="translate(-165.000000, -188.000000)" id="Oval-2">
                                            <g>
                                                <circle id="Oval" fill="url(#linearGradient-8)" fill-rule="nonzero" cx="885" cy="885" r="885"></circle>
                                            </g>
                                        </g>
                                    </g>
                                </g>
                            </g>
                        </g>
                    </g>
                </g>
            </g>
        </g>
    </g>
</svg>