<?xml version="1.0" encoding="UTF-8"?>
<svg width="196px" height="29px" viewBox="0 0 196 29" version="1.1" xmlns="http://www.w3.org/2000/svg" xmlns:xlink="http://www.w3.org/1999/xlink">
    <!-- Generator: Sketch 54.1 (76490) - https://sketchapp.com -->
    <title>Group 3</title>
    <desc>Created with Sketch.</desc>
    <g id="Page-1" stroke="none" stroke-width="1" fill="none" fill-rule="evenodd">
        <g id="Desktop-HD-Copy-4" transform="translate(-1207.000000, -30.000000)" fill-rule="nonzero">
            <g id="Group-3" transform="translate(1207.000000, 30.000000)">
                <path d="M-4.26325641e-14,4.27381112 L5.35124249,3.41186602 L5.35124249,8.97859479 L11.7799164,8.97859479 L11.7799164,13.4319778 L5.35124249,13.4319778 L5.35124249,20.0761379 C5.35124249,21.2014608 5.5487696,22.0993113 5.94382975,22.7697164 C6.33888989,23.4401214 7.134984,23.775319 8.33213596,23.775319 C8.9067689,23.775319 9.49935023,23.721448 10.1098977,23.6137043 C10.7204452,23.5059606 11.2771126,23.3563188 11.7799164,23.1647745 L12.5341183,27.3308425 C11.8876562,27.5942159 11.1693758,27.8216714 10.3792556,28.0132157 C9.58913528,28.20476 8.61945674,28.3005308 7.47019086,28.3005308 C6.00966547,28.3005308 4.80056013,28.1030037 3.84283857,27.7079435 C2.885117,27.3128833 2.11895124,26.7622017 1.5443183,26.0558821 C0.969685364,25.3495624 0.568645474,24.4936116 0.341186602,23.488004 C0.11372773,22.4823963 -4.26325641e-14,21.3690616 -4.26325641e-14,20.1479667 L-4.26325641e-14,4.27381112 Z M16.1255562,27.8695582 L16.1255562,0.861945099 L21.4767987,3.19744231e-14 L21.4767987,9.05042354 C21.8359443,8.93070835 22.2968409,8.81698062 22.8595023,8.70923694 C23.4221637,8.60149327 23.9668597,8.54762224 24.4936066,8.54762224 C26.0259611,8.54762224 27.3009088,8.75712069 28.318488,9.17612387 C29.3360671,9.59512706 30.1501183,10.1877084 30.7606657,10.9538856 C31.3712132,11.7200629 31.8021815,12.6298847 32.0535834,13.6833785 C32.3049853,14.7368722 32.4306844,15.9100634 32.4306844,17.2029876 L32.4306844,27.8695582 L27.0794419,27.8695582 L27.0794419,17.8494464 C27.0794419,16.1255476 26.857972,14.9044709 26.4150259,14.1861798 C25.9720797,13.4678886 25.1520428,13.1087484 23.9548909,13.1087484 C23.4760301,13.1087484 23.0271049,13.1506481 22.6081017,13.2344487 C22.1890985,13.3182493 21.8120013,13.4080344 21.4767987,13.5038066 L21.4767987,27.8695582 L16.1255562,27.8695582 Z M44.4979158,24.1344628 C45.0246626,24.1344628 45.5274589,24.1224914 46.0063197,24.0985484 C46.4851805,24.0746054 46.8682633,24.0386914 47.1555798,23.9908053 L47.1555798,19.9324804 C46.9400924,19.8845943 46.6168663,19.836709 46.1858916,19.7888229 C45.7549169,19.7409368 45.3598627,19.7169941 45.0007171,19.7169941 C44.4979133,19.7169941 44.0250453,19.7469225 43.5820991,19.8067801 C43.1391529,19.8666377 42.7500844,19.9803654 42.4148818,20.1479667 C42.0796792,20.315568 41.8163097,20.5430234 41.6247654,20.8303399 C41.4332211,21.1176564 41.3374504,21.4767966 41.3374504,21.9077713 C41.3374504,22.7457776 41.6187769,23.3263877 42.1814383,23.6496187 C42.7440997,23.9728496 43.5162512,24.1344628 44.4979158,24.1344628 Z M44.0669432,8.47579348 C45.6471837,8.47579348 46.9640311,8.65536358 48.0175249,9.01450916 C49.0710187,9.37365475 49.9149981,9.88842237 50.5494886,10.5588275 C51.1839792,11.2292325 51.6329045,12.0432837 51.8962779,13.0010052 C52.1596512,13.9587268 52.291336,15.024176 52.291336,16.197385 L52.291336,27.3308425 C51.5251588,27.4984438 50.4597095,27.6959709 49.0949563,27.9234298 C47.730203,28.1508887 46.0781581,28.2646164 44.138772,28.2646164 C42.917677,28.2646164 41.8103281,28.1568744 40.8166919,27.941387 C39.8230557,27.7258996 38.967105,27.3727451 38.2488138,26.8819128 C37.5305226,26.3910805 36.9798409,25.7506138 36.5967523,24.9604935 C36.2136638,24.1703732 36.0221223,23.2006946 36.0221223,22.0514288 C36.0221223,20.950049 36.2435921,20.0162845 36.6865383,19.2501072 C37.1294845,18.4839299 37.7220659,17.8733917 38.4643001,17.4184739 C39.2065342,16.9635561 40.0564994,16.6343442 41.014221,16.4308285 C41.9719425,16.2273127 42.9655638,16.1255562 43.9951144,16.1255562 C44.6894626,16.1255562 45.3059866,16.1554846 45.844705,16.2153422 C46.3834234,16.2751998 46.8203772,16.3530134 47.1555798,16.4487856 L47.1555798,15.9459843 C47.1555798,15.0361489 46.880239,14.3058971 46.3295491,13.7552072 C45.7788592,13.2045173 44.821152,12.9291765 43.4563988,12.9291765 C42.5465633,12.9291765 41.6487128,12.9950189 40.7628203,13.1267056 C39.8769279,13.2583923 39.1107621,13.4439481 38.4643001,13.6833785 L37.7819269,9.37365296 C38.0931863,9.2778808 38.4822549,9.17612441 38.9491442,9.06838073 C39.4160335,8.96063706 39.9248154,8.86486634 40.4755053,8.7810657 C41.0261952,8.69726506 41.6068052,8.62543702 42.2173527,8.56557943 C42.8279002,8.50572183 43.4444242,8.47579348 44.0669432,8.47579348 Z M57.1397772,9.62505361 C58.0496127,9.36168018 59.222804,9.11626771 60.6593864,8.88880884 C62.0959687,8.66134997 63.6043576,8.54762224 65.1845981,8.54762224 C66.7887818,8.54762224 68.1235862,8.75712069 69.1890514,9.17612387 C70.2545167,9.59512706 71.0984962,10.1877084 71.7210151,10.9538856 C72.3435341,11.7200629 72.7864738,12.6298847 73.0498472,13.6833785 C73.3132206,14.7368722 73.4449053,15.9100634 73.4449053,17.2029876 L73.4449053,27.8695582 L68.0936629,27.8695582 L68.0936629,17.8494464 C68.0936629,16.1255476 67.8662074,14.9044709 67.4112896,14.1861798 C66.9563719,13.4678886 66.1064068,13.1087484 64.8613687,13.1087484 C64.4782801,13.1087484 64.0712545,13.1267054 63.6402798,13.16262 C63.2093052,13.1985346 62.8262223,13.2404342 62.4910197,13.2883203 L62.4910197,27.8695582 L57.1397772,27.8695582 L57.1397772,9.62505361 Z M83.644589,15.8023268 C84.1713359,15.2276938 84.7160319,14.6291268 85.2786933,14.0066079 C85.8413546,13.3840889 86.3860506,12.7675648 86.9127975,12.1570173 C87.4395444,11.5464699 87.936355,10.9658599 88.4032443,10.41517 C88.8701335,9.86448005 89.2711734,9.38562645 89.606376,8.97859479 L95.9632211,8.97859479 C94.69424,10.4391202 93.4552063,11.8337813 92.2460828,13.16262 C91.0369594,14.4914586 89.7141263,15.862177 88.2775439,17.2748164 C88.9958351,17.9212784 89.7380582,18.6934299 90.5042354,19.5912938 C91.2704127,20.4891578 92.0126358,21.4169366 92.7309269,22.3746582 C93.4492181,23.3323798 94.1076418,24.290087 94.7062178,25.2478085 C95.3047938,26.2055301 95.80759,27.0794379 96.2146217,27.8695582 L90.0732629,27.8695582 C89.6901743,27.2470392 89.2532203,26.5586872 88.762388,25.8044814 C88.2715558,25.0502756 87.7508024,24.2960813 87.2001126,23.5418755 C86.6494227,22.7876697 86.0688126,22.0634038 85.4582652,21.3690556 C84.8477177,20.6747074 84.243165,20.0881118 83.644589,19.609251 L83.644589,27.8695582 L78.2933465,27.8695582 L78.2933465,0.861945099 L83.644589,3.19744231e-14 L83.644589,15.8023268 Z M122.737391,18.4240765 C122.737391,17.0593232 122.95886,15.7724042 123.401807,14.5632807 C123.844753,13.3541573 124.48522,12.3006793 125.323226,11.4028154 C126.161232,10.5049514 127.178796,9.79265668 128.375948,9.26590982 C129.5731,8.73916296 130.937833,8.47579348 132.470187,8.47579348 C133.475795,8.47579348 134.397589,8.56557853 135.235595,8.74515132 C136.073601,8.92472411 136.887652,9.18210792 137.677772,9.51731047 L136.564427,13.7911216 C136.061623,13.5995773 135.510941,13.4319785 134.912365,13.2883203 C134.313789,13.1446621 133.643395,13.072834 132.90116,13.072834 C131.320919,13.072834 130.141743,13.563659 129.363594,14.5453236 C128.585445,15.5269881 128.196376,16.8198929 128.196376,18.4240765 C128.196376,20.1240322 128.561502,21.4408796 129.291765,22.3746582 C130.022028,23.3084368 131.296976,23.775319 133.116646,23.775319 C133.763108,23.775319 134.457446,23.7154623 135.19968,23.5957471 C135.941915,23.4760319 136.624281,23.2844904 137.2468,23.021117 L138.001002,27.4026713 C137.378483,27.6660447 136.600346,27.8935002 135.666567,28.0850445 C134.732789,28.2765888 133.703254,28.3723595 132.577931,28.3723595 C130.854031,28.3723595 129.369586,28.1149758 128.124548,27.6002004 C126.879509,27.085425 125.85596,26.3851017 125.053868,25.4992092 C124.251777,24.6133167 123.66518,23.5658245 123.294064,22.356701 C122.922947,21.1475776 122.737391,19.8367159 122.737391,18.4240765 Z M148.81123,24.1344628 C149.337977,24.1344628 149.840773,24.1224914 150.319634,24.0985484 C150.798495,24.0746054 151.181578,24.0386914 151.468894,23.9908053 L151.468894,19.9324804 C151.253407,19.8845943 150.930181,19.836709 150.499206,19.7888229 C150.068231,19.7409368 149.673177,19.7169941 149.314031,19.7169941 C148.811228,19.7169941 148.33836,19.7469225 147.895413,19.8067801 C147.452467,19.8666377 147.063398,19.9803654 146.728196,20.1479667 C146.392994,20.315568 146.129624,20.5430234 145.93808,20.8303399 C145.746535,21.1176564 145.650765,21.4767966 145.650765,21.9077713 C145.650765,22.7457776 145.932091,23.3263877 146.494753,23.6496187 C147.057414,23.9728496 147.829565,24.1344628 148.81123,24.1344628 Z M148.380257,8.47579348 C149.960498,8.47579348 151.277346,8.65536358 152.330839,9.01450916 C153.384332,9.37365475 154.228312,9.88842237 154.862803,10.5588275 C155.497293,11.2292325 155.946218,12.0432837 156.209592,13.0010052 C156.472966,13.9587268 156.60465,15.024176 156.60465,16.197385 L156.60465,27.3308425 C155.838473,27.4984438 154.773024,27.6959709 153.408271,27.9234298 C152.043517,28.1508887 150.391473,28.2646164 148.452086,28.2646164 C147.230992,28.2646164 146.123643,28.1568744 145.130006,27.941387 C144.13637,27.7258996 143.280419,27.3727451 142.562128,26.8819128 C141.843837,26.3910805 141.293155,25.7506138 140.910067,24.9604935 C140.526978,24.1703732 140.335436,23.2006946 140.335436,22.0514288 C140.335436,20.950049 140.556906,20.0162845 140.999853,19.2501072 C141.442799,18.4839299 142.03538,17.8733917 142.777614,17.4184739 C143.519849,16.9635561 144.369813,16.6343442 145.327535,16.4308285 C146.285257,16.2273127 147.278878,16.1255562 148.308429,16.1255562 C149.002777,16.1255562 149.619301,16.1554846 150.158019,16.2153422 C150.696737,16.2751998 151.133692,16.3530134 151.468894,16.4487856 L151.468894,15.9459843 C151.468894,15.0361489 151.193553,14.3058971 150.642863,13.7552072 C150.092174,13.2045173 149.134466,12.9291765 147.769713,12.9291765 C146.859877,12.9291765 145.962027,12.9950189 145.076135,13.1267056 C144.190242,13.2583923 143.424076,13.4439481 142.777614,13.6833785 L142.095241,9.37365296 C142.406501,9.2778808 142.795569,9.17612441 143.262458,9.06838073 C143.729348,8.96063706 144.23813,8.86486634 144.78882,8.7810657 C145.339509,8.69726506 145.920119,8.62543702 146.530667,8.56557943 C147.141215,8.50572183 147.757739,8.47579348 148.380257,8.47579348 Z M166.876163,24.0267196 C167.857827,24.0267196 168.552166,23.9309489 168.959197,23.7394046 C169.366228,23.5478603 169.569741,23.1767487 169.569741,22.6260589 C169.569741,22.1950842 169.306372,21.8179869 168.779625,21.4947559 C168.252878,21.1715249 167.450798,20.806399 166.373361,20.3993674 C165.535355,20.0881079 164.775175,19.7648817 164.092798,19.4296791 C163.410422,19.0944765 162.829812,18.6934367 162.350951,18.2265474 C161.87209,17.7596581 161.500979,17.2029909 161.237605,16.5565288 C160.974232,15.9100667 160.842547,15.1319296 160.842547,14.2220941 C160.842547,12.4503092 161.500971,11.0496624 162.817838,10.0201118 C164.134705,8.9905611 165.942378,8.47579348 168.240909,8.47579348 C169.390175,8.47579348 170.491539,8.57754987 171.545032,8.7810657 C172.598525,8.98458153 173.43652,9.20605132 174.059039,9.44548171 L173.125265,13.6115497 C172.502746,13.3960623 171.826365,13.2045209 171.096102,13.0369196 C170.365839,12.8693183 169.545803,12.785519 168.635967,12.785519 C166.959954,12.785519 166.121961,13.2524012 166.121961,14.1861798 C166.121961,14.4016672 166.157875,14.5932085 166.229704,14.7608098 C166.301533,14.9284111 166.445189,15.0900241 166.660676,15.2456539 C166.876164,15.4012837 167.169462,15.5688825 167.540579,15.7484553 C167.911695,15.928028 168.384563,16.1255551 168.959197,16.3410425 C170.132406,16.7720172 171.102084,17.1969998 171.868261,17.616003 C172.634439,18.0350062 173.238991,18.4899171 173.681938,18.9807494 C174.124884,19.4715817 174.436138,20.0162776 174.615711,20.6148536 C174.795284,21.2134296 174.885069,21.9077673 174.885069,22.6978876 C174.885069,24.5654446 174.184746,25.9780628 172.784078,26.9357844 C171.383411,27.8935059 169.402153,28.3723595 166.840248,28.3723595 C165.164235,28.3723595 163.769574,28.2287035 162.656223,27.941387 C161.542872,27.6540705 160.77072,27.4146437 160.339746,27.2230994 L161.237605,22.8774595 C162.147441,23.2366051 163.081205,23.5179316 164.038927,23.7214474 C164.996649,23.9249632 165.942384,24.0267196 166.876163,24.0267196 Z M178.871565,27.8695582 L178.871565,0.861945099 L184.222808,1.77635684e-14 L184.222808,9.05042354 C184.581954,8.93070835 185.04285,8.81698062 185.605511,8.70923694 C186.168173,8.60149327 186.712868,8.54762224 187.239616,8.54762224 C188.77197,8.54762224 190.046918,8.75712069 191.064497,9.17612387 C192.082076,9.59512706 192.896127,10.1877084 193.506675,10.9538856 C194.117223,11.7200629 194.548191,12.6298847 194.799592,13.6833785 C195.050994,14.7368722 195.176693,15.9100634 195.176693,17.2029876 L195.176693,27.8695582 L189.825451,27.8695582 L189.825451,17.8494464 C189.825451,16.1255476 189.603982,14.9044709 189.161035,14.1861798 C188.718088,13.4678886 187.898052,13.1087484 186.7009,13.1087484 C186.222039,13.1087484 185.773114,13.1506481 185.354111,13.2344487 C184.935108,13.3182493 184.55801,13.4080344 184.222808,13.5038066 L184.222808,27.8695582 L178.871565,27.8695582 Z" id="Combined-Shape" fill="#442563"></path>
                <path d="M109.689987,28.9776615 C107.88549,28.9776615 106.324624,28.4814324 105.007342,27.4889594 C103.69006,26.4964864 102.679557,25.0664445 101.975803,23.1987907 C101.27205,21.331137 100.920178,19.1251732 100.920178,16.5808334 C100.920178,13.6034143 101.281072,10.7884422 102.002871,8.13583252 L107.822342,9.54333266 C107.641893,10.391446 107.497535,11.3162365 107.389265,12.317732 C107.280996,13.3192274 107.163705,14.5868672 107.03739,16.1206891 L106.956188,16.905641 C106.956188,21.3447022 107.867445,23.5641995 109.689987,23.5641995 C111.476438,23.5641995 112.36965,21.3898139 112.36965,17.0409776 C112.36965,16.3011341 112.25236,15.1733408 112.017775,13.6575639 C111.783191,12.1417869 111.485453,10.6982114 111.124554,9.32679417 L116.862824,7.70275556 C117.819207,10.3734102 118.297391,13.4861197 118.297391,17.0409776 C118.297391,19.4590028 117.94552,21.5657207 117.241766,23.3611946 C116.538013,25.1566685 115.541043,26.5415987 114.250829,27.5160267 C112.960614,28.4904548 111.440348,28.9776615 109.689987,28.9776615 Z M109.629606,8.30240059 C107.904737,8.30240059 106.506455,6.90411817 106.506455,5.17924939 C106.506455,3.45438062 107.904737,2.05609821 109.629606,2.05609821 C111.354475,2.05609821 112.752757,3.45438062 112.752757,5.17924939 C112.752757,6.90411817 111.354475,8.30240059 109.629606,8.30240059 Z M109.629606,6.63671995 C110.434545,6.63671995 111.087076,5.98418816 111.087076,5.17924939 C111.087076,4.37431064 110.434545,3.72177884 109.629606,3.72177884 C108.824667,3.72177884 108.172135,4.37431064 108.172135,5.17924939 C108.172135,5.98418816 108.824667,6.63671995 109.629606,6.63671995 Z" id="Combined-Shape" fill="#B11A83"></path>
            </g>
        </g>
    </g>
</svg>