<?xml version="1.0" encoding="UTF-8"?>
<svg width="339px" height="55px" viewBox="0 0 339 55" version="1.1" xmlns="http://www.w3.org/2000/svg" xmlns:xlink="http://www.w3.org/1999/xlink">
    <!-- Generator: Sketch 54.1 (76490) - https://sketchapp.com -->
    <title>*347*100#</title>
    <desc>Created with Sketch.</desc>
    <g id="Page-1" stroke="none" stroke-width="1" fill="none" fill-rule="evenodd">
        <g id="1" transform="translate(-204.000000, -607.000000)" fill="#B11A83" fill-rule="nonzero">
            <path d="M218.040039,607.638184 L218.040039,615.586914 L225.810547,612.87793 L227.236328,616.834473 L219.46582,619.365234 L224.277832,626.066406 L220.749023,628.597168 L216.07959,621.646484 L211.374512,628.597168 L207.73877,626.066406 L212.62207,619.365234 L204.780273,616.834473 L206.206055,612.87793 L213.905273,615.658203 L213.905273,607.638184 L218.040039,607.638184 Z M249.371582,661.390137 C243.335745,661.390137 238.957452,659.732683 236.236572,656.417725 C233.515693,653.102767 232.155273,649.069034 232.155273,644.316406 L238.856445,644.316406 C239.141603,647.619483 239.759435,650.019524 240.709961,651.516602 C242.373381,654.201836 245.379373,655.544434 249.728027,655.544434 C253.102393,655.544434 255.81135,654.641448 257.85498,652.835449 C259.89861,651.029451 260.92041,648.700698 260.92041,645.849121 C260.92041,642.332176 259.845144,639.872728 257.69458,638.470703 C255.544016,637.068678 252.555846,636.367676 248.72998,636.367676 C248.302244,636.367676 247.868573,636.373616 247.428955,636.385498 C246.989337,636.39738 246.543785,636.415202 246.092285,636.438965 L246.092285,630.771484 C246.757653,630.842774 247.316078,630.890299 247.767578,630.914062 C248.219078,630.937826 248.706215,630.949707 249.229004,630.949707 C251.629081,630.949707 253.601392,630.569502 255.145996,629.809082 C257.854994,628.478346 259.209473,626.102068 259.209473,622.680176 C259.209473,620.13752 258.306487,618.17709 256.500488,616.798828 C254.69449,615.420566 252.591483,614.731445 250.191406,614.731445 C245.914041,614.731445 242.955575,616.157212 241.315918,619.008789 C240.412919,620.577156 239.902019,622.810858 239.783203,625.709961 L233.438477,625.709961 C233.438477,621.907859 234.198886,618.67612 235.719727,616.014648 C238.333672,611.262021 242.93177,608.885742 249.51416,608.885742 C254.718288,608.885742 258.746079,610.044178 261.597656,612.361084 C264.449233,614.67799 265.875,618.034483 265.875,622.430664 C265.875,625.567398 265.031421,628.110016 263.344238,630.058594 C262.29866,631.270514 260.944181,632.221025 259.280762,632.910156 C261.965996,633.646814 264.063062,635.06664 265.572021,637.169678 C267.080981,639.272716 267.835449,641.845037 267.835449,644.886719 C267.835449,649.758162 266.231461,653.726547 263.023438,656.791992 C259.815414,659.857437 255.264841,661.390137 249.371582,661.390137 Z M295.13916,641.928223 L295.13916,618.794922 L278.77832,641.928223 L295.13916,641.928223 Z M295.246094,660 L295.246094,647.524414 L272.861328,647.524414 L272.861328,641.250977 L296.244141,608.814453 L301.662109,608.814453 L301.662109,641.928223 L309.183105,641.928223 L309.183105,647.524414 L301.662109,647.524414 L301.662109,660 L295.246094,660 Z M349.782227,609.8125 L349.782227,615.408691 C348.14257,617.000822 345.962335,619.769186 343.241455,623.713867 C340.520576,627.658548 338.114594,631.912087 336.023438,636.474609 C333.956044,640.918316 332.387701,644.969871 331.318359,648.629395 C330.629228,650.981945 329.738124,654.772109 328.64502,660 L321.551758,660 C323.167651,650.257113 326.732069,640.561897 332.245117,630.914062 C335.500667,625.258435 338.922508,620.375183 342.510742,616.26416 L314.280273,616.26416 L314.280273,609.8125 L349.782227,609.8125 Z M368.246094,607.638184 L368.246094,615.586914 L376.016602,612.87793 L377.442383,616.834473 L369.671875,619.365234 L374.483887,626.066406 L370.955078,628.597168 L366.285645,621.646484 L361.580566,628.597168 L357.944824,626.066406 L362.828125,619.365234 L354.986328,616.834473 L356.412109,612.87793 L364.111328,615.658203 L364.111328,607.638184 L368.246094,607.638184 Z M387.601074,623.856445 L387.601074,618.9375 C392.234886,618.486 395.466625,617.731532 397.296387,616.674072 C399.126148,615.616613 400.492509,613.11558 401.395508,609.170898 L406.457031,609.170898 L406.457031,660 L399.613281,660 L399.613281,623.856445 L387.601074,623.856445 Z M440.960938,608.957031 C447.56709,608.957031 452.34341,611.67787 455.290039,617.119629 C457.5713,621.325705 458.711914,627.08818 458.711914,634.407227 C458.711914,641.346063 457.678233,647.084775 455.61084,651.623535 C452.616684,658.134635 447.721551,661.390137 440.925293,661.390137 C434.794403,661.390137 430.231949,658.728705 427.237793,653.405762 C424.742663,648.962055 423.495117,642.997596 423.495117,635.512207 C423.495117,629.714001 424.243645,624.735698 425.740723,620.577148 C428.544773,612.830365 433.618127,608.957031 440.960938,608.957031 Z M440.889648,655.544434 C444.216488,655.544434 446.866038,654.071141 448.838379,651.124512 C450.810719,648.177882 451.796875,642.688679 451.796875,634.656738 C451.796875,628.858532 451.083992,624.088153 449.658203,620.345459 C448.232415,616.602764 445.464051,614.731445 441.353027,614.731445 C437.574688,614.731445 434.812265,616.507713 433.065674,620.060303 C431.319083,623.612892 430.445801,628.846645 430.445801,635.761719 C430.445801,640.965846 431.004226,645.148096 432.121094,648.308594 C433.83204,653.132511 436.754862,655.544434 440.889648,655.544434 Z M481.560059,608.957031 C488.166211,608.957031 492.942531,611.67787 495.88916,617.119629 C498.170422,621.325705 499.311035,627.08818 499.311035,634.407227 C499.311035,641.346063 498.277354,647.084775 496.209961,651.623535 C493.215805,658.134635 488.320672,661.390137 481.524414,661.390137 C475.393524,661.390137 470.83107,658.728705 467.836914,653.405762 C465.341784,648.962055 464.094238,642.997596 464.094238,635.512207 C464.094238,629.714001 464.842766,624.735698 466.339844,620.577148 C469.143894,612.830365 474.217248,608.957031 481.560059,608.957031 Z M481.48877,655.544434 C484.815609,655.544434 487.465159,654.071141 489.4375,651.124512 C491.409841,648.177882 492.395996,642.688679 492.395996,634.656738 C492.395996,628.858532 491.683113,624.088153 490.257324,620.345459 C488.831536,616.602764 486.063172,614.731445 481.952148,614.731445 C478.173809,614.731445 475.411386,616.507713 473.664795,620.060303 C471.918204,623.612892 471.044922,628.846645 471.044922,635.761719 C471.044922,640.965846 471.603347,645.148096 472.720215,648.308594 C474.431161,653.132511 477.353983,655.544434 481.48877,655.544434 Z M503.481445,640.003418 L511.786621,640.003418 L515.137207,627.741699 L506.867676,627.741699 L507.972656,623.606934 L516.242188,623.606934 L520.483887,607.638184 L525.794922,607.638184 L521.481934,623.606934 L529.359375,623.606934 L533.743652,607.638184 L538.983398,607.638184 L534.67041,623.606934 L542.939941,623.606934 L541.834961,627.741699 L533.56543,627.741699 L530.179199,640.003418 L538.484375,640.003418 L537.379395,644.138184 L529.181152,644.138184 L524.796875,660 L519.557129,660 L523.870117,644.138184 L515.921387,644.138184 L511.679688,660 L506.368652,660 L510.681641,644.138184 L502.412109,644.138184 L503.481445,640.003418 Z M524.868164,640.003418 L528.254395,627.741699 L520.376953,627.741699 L517.097656,640.003418 L524.868164,640.003418 Z" id="*347*100#"></path>
        </g>
    </g>
</svg>