<?xml version="1.0" encoding="UTF-8"?>
<svg width="349px" height="53px" viewBox="0 0 349 53" version="1.1" xmlns="http://www.w3.org/2000/svg" xmlns:xlink="http://www.w3.org/1999/xlink">
    <!-- Generator: Sketch 59 (86127) - https://sketch.com -->
    <title>*347*100#</title>
    <desc>Created with Sketch.</desc>
    <g id="new" stroke="none" stroke-width="1" fill="none" fill-rule="evenodd">
        <g id="1" transform="translate(-205.000000, -605.000000)" fill="#B11A83" fill-rule="nonzero">
            <path d="M226.772949,615.689941 L229.339355,611.27002 C229.838381,610.390783 229.957195,609.475916 229.695801,608.525391 C229.434406,607.551102 228.875981,606.826337 228.020508,606.351074 C227.141272,605.852048 226.226404,605.721353 225.275879,605.958984 C224.30159,606.220379 223.564944,606.790686 223.065918,607.669922 L220.535156,612.089844 L217.96875,607.669922 C217.469724,606.790686 216.744959,606.220379 215.794434,605.958984 C214.820145,605.721353 213.905278,605.852048 213.049805,606.351074 C212.194332,606.826337 211.635906,607.551102 211.374512,608.525391 C211.113117,609.475916 211.231931,610.390783 211.730957,611.27002 L214.261719,615.689941 L209.164551,615.689941 C208.166499,615.689941 207.32292,616.034502 206.633789,616.723633 C205.920895,617.436527 205.564453,618.291987 205.564453,619.290039 C205.564453,620.288091 205.920895,621.143551 206.633789,621.856445 C207.32292,622.545576 208.166499,622.890137 209.164551,622.890137 L214.261719,622.890137 L211.730957,627.310059 C211.231931,628.189295 211.113117,629.104162 211.374512,630.054688 C211.635906,631.028976 212.194332,631.765623 213.049805,632.264648 C213.596357,632.573569 214.190426,632.728027 214.832031,632.728027 C216.234056,632.728027 217.279619,632.133958 217.96875,630.945801 L220.535156,626.490234 L223.065918,630.945801 C223.778812,632.133958 224.824375,632.728027 226.202637,632.728027 C226.844241,632.728027 227.450192,632.573569 228.020508,632.264648 C228.875981,631.765623 229.434406,631.028976 229.695801,630.054688 C229.957195,629.104162 229.838381,628.189295 229.339355,627.310059 L226.772949,622.890137 L231.870117,622.890137 C232.868169,622.890137 233.723629,622.545576 234.436523,621.856445 C235.149418,621.143551 235.505859,620.288091 235.505859,619.290039 C235.505859,618.291987 235.149418,617.436527 234.436523,616.723633 C233.723629,616.034502 232.868169,615.689941 231.870117,615.689941 L226.772949,615.689941 Z M270.4375,616.9375 C271.578131,616.082027 272.362303,615.00082 272.790039,613.693848 C273.217776,612.410638 273.229657,611.139329 272.825684,609.879883 C272.445473,608.763015 271.756353,607.836267 270.758301,607.099609 C269.570144,606.220373 268.120614,605.780762 266.409668,605.780762 L246.698242,605.780762 C245.70019,605.780762 244.856612,606.137203 244.16748,606.850098 C243.454586,607.539229 243.098145,608.382808 243.098145,609.380859 C243.098145,610.378911 243.454586,611.234371 244.16748,611.947266 C244.856612,612.636397 245.70019,612.980957 246.698242,612.980957 L263.700684,612.980957 L249.51416,623.745605 C248.135898,624.791184 247.731931,626.133781 248.302246,627.773438 C248.848798,629.413094 249.977531,630.23291 251.688477,630.23291 L255.466797,630.23291 C259.57782,630.23291 262.797677,631.314117 265.126465,633.476562 C267.170095,635.377614 268.191895,637.742011 268.191895,640.569824 C268.191895,643.350112 267.181976,645.690746 265.162109,647.591797 C262.880848,649.706716 259.696635,650.76416 255.609375,650.76416 L246.234863,650.76416 C245.236811,650.76416 244.393233,651.120602 243.704102,651.833496 C242.991207,652.54639 242.634766,653.389969 242.634766,654.364258 C242.634766,655.36231 242.991207,656.21777 243.704102,656.930664 C244.393233,657.643558 245.236811,658 246.234863,658 L255.609375,658 C261.764028,658 266.694806,656.170266 270.401855,652.510742 C273.752458,649.231429 275.427734,645.251163 275.427734,640.569824 C275.427734,636.743959 274.251477,633.310237 271.898926,630.268555 C269.35627,626.989241 265.898785,624.803065 261.526367,623.709961 L270.4375,616.9375 Z M311.785156,639.963867 L311.820801,612.125488 C311.820801,610.747226 311.416833,609.511561 310.608887,608.418457 C309.824703,607.325353 308.791022,606.564944 307.507812,606.137207 C306.12955,605.685707 304.775072,605.673826 303.444336,606.101562 C302.1136,606.553062 301.068038,607.349115 300.307617,608.489746 L281.45166,637.290527 C280.049635,639.405447 279.883295,641.544097 280.952637,643.706543 C282.117031,646.035331 284.006172,647.199707 286.620117,647.199707 L304.549316,647.199707 L304.549316,654.364258 C304.549316,655.36231 304.905758,656.21777 305.618652,656.930664 C306.307783,657.643558 307.151362,658 308.149414,658 C309.147466,658 310.002926,657.643558 310.71582,656.930664 C311.404951,656.21777 311.749512,655.374191 311.749512,654.399902 L311.785156,647.199707 L319.234863,647.199707 C320.232915,647.199707 321.088375,646.843265 321.80127,646.130371 C322.514164,645.417477 322.870605,644.573898 322.870605,643.599609 C322.870605,642.601558 322.514164,641.746097 321.80127,641.033203 C321.088375,640.320309 320.232915,639.963867 319.234863,639.963867 L311.785156,639.963867 Z M288.29541,639.963867 L304.584961,615.119629 L304.549316,639.963867 L288.29541,639.963867 Z M327.718262,605.780762 C326.72021,605.780762 325.876631,606.137203 325.1875,606.850098 C324.474606,607.539229 324.118164,608.382808 324.118164,609.380859 C324.118164,610.378911 324.474606,611.234371 325.1875,611.947266 C325.876631,612.636397 326.72021,612.980957 327.718262,612.980957 L351.029785,612.980957 C351.362469,612.980957 351.62386,613.123534 351.813965,613.408691 C351.980307,613.693849 351.980307,613.990884 351.813965,614.299805 L331.924316,652.724609 C331.449054,653.603846 331.365884,654.518713 331.674805,655.469238 C331.983726,656.419764 332.577795,657.120766 333.457031,657.572266 C333.97982,657.857423 334.538246,658 335.132324,658 C336.581876,658 337.63932,657.346523 338.304688,656.039551 L358.22998,617.614746 C359.632006,614.905748 359.536955,612.256198 357.944824,609.666016 C356.376457,607.075833 354.071467,605.780762 351.029785,605.780762 L327.718262,605.780762 Z M385.462402,615.689941 L388.028809,611.27002 C388.527835,610.390783 388.646648,609.475916 388.385254,608.525391 C388.123859,607.551102 387.565434,606.826337 386.709961,606.351074 C385.830725,605.852048 384.915858,605.721353 383.965332,605.958984 C382.991043,606.220379 382.254397,606.790686 381.755371,607.669922 L379.224609,612.089844 L376.658203,607.669922 C376.159177,606.790686 375.434412,606.220379 374.483887,605.958984 C373.509598,605.721353 372.594731,605.852048 371.739258,606.351074 C370.883785,606.826337 370.325359,607.551102 370.063965,608.525391 C369.80257,609.475916 369.921384,610.390783 370.42041,611.27002 L372.951172,615.689941 L367.854004,615.689941 C366.855952,615.689941 366.012373,616.034502 365.323242,616.723633 C364.610348,617.436527 364.253906,618.291987 364.253906,619.290039 C364.253906,620.288091 364.610348,621.143551 365.323242,621.856445 C366.012373,622.545576 366.855952,622.890137 367.854004,622.890137 L372.951172,622.890137 L370.42041,627.310059 C369.921384,628.189295 369.80257,629.104162 370.063965,630.054688 C370.325359,631.028976 370.883785,631.765623 371.739258,632.264648 C372.28581,632.573569 372.87988,632.728027 373.521484,632.728027 C374.92351,632.728027 375.969072,632.133958 376.658203,630.945801 L379.224609,626.490234 L381.755371,630.945801 C382.468265,632.133958 383.513828,632.728027 384.89209,632.728027 C385.533695,632.728027 386.139646,632.573569 386.709961,632.264648 C387.565434,631.765623 388.123859,631.028976 388.385254,630.054688 C388.646648,629.104162 388.527835,628.189295 388.028809,627.310059 L385.462402,622.890137 L390.55957,622.890137 C391.557622,622.890137 392.413082,622.545576 393.125977,621.856445 C393.838871,621.143551 394.195312,620.288091 394.195312,619.290039 C394.195312,618.291987 393.838871,617.436527 393.125977,616.723633 C392.413082,616.034502 391.557622,615.689941 390.55957,615.689941 L385.462402,615.689941 Z M401.395508,605.780762 C400.397456,605.780762 399.553877,606.137203 398.864746,606.850098 C398.151852,607.539229 397.79541,608.382808 397.79541,609.380859 C397.79541,610.378911 398.151852,611.234371 398.864746,611.947266 C399.553877,612.636397 400.397456,612.980957 401.395508,612.980957 L405.565918,612.980957 C406.159996,612.980957 406.457031,613.277992 406.457031,613.87207 L406.457031,654.364258 C406.457031,655.36231 406.813473,656.21777 407.526367,656.930664 C408.215498,657.643558 409.059077,658 410.057129,658 C411.055181,658 411.910641,657.643558 412.623535,656.930664 C413.312666,656.21777 413.657227,655.36231 413.657227,654.364258 L413.657227,613.87207 C413.657227,611.638335 412.873055,609.737313 411.304688,608.168945 C409.712557,606.576815 407.799653,605.780762 405.565918,605.780762 L401.395508,605.780762 Z M439.107422,605.780762 C434.045873,605.780762 429.732928,607.56297 426.168457,611.127441 C422.580223,614.691912 420.786133,618.992976 420.786133,624.030762 L420.786133,639.714355 C420.786133,644.752141 422.580223,649.053205 426.168457,652.617676 C429.732928,656.20591 434.045873,658 439.107422,658 C444.145207,658 448.458153,656.20591 452.046387,652.617676 C455.610858,649.053205 457.393066,644.752141 457.393066,639.714355 L457.393066,624.030762 C457.393066,618.992976 455.610858,614.691912 452.046387,611.127441 C448.458153,607.56297 444.145207,605.780762 439.107422,605.780762 Z M450.192871,639.714355 C450.192871,642.756037 449.111664,645.358062 446.949219,647.520508 C444.76301,649.682954 442.149104,650.76416 439.107422,650.76416 C436.041977,650.76416 433.428071,649.682954 431.265625,647.520508 C429.079416,645.358062 427.986328,642.756037 427.986328,639.714355 L427.986328,624.030762 C427.986328,620.98908 429.079416,618.387055 431.265625,616.224609 C433.428071,614.062164 436.041977,612.980957 439.107422,612.980957 C442.149104,612.980957 444.76301,614.062164 446.949219,616.224609 C449.111664,618.387055 450.192871,620.98908 450.192871,624.030762 L450.192871,639.714355 Z M482.843262,605.780762 C477.781713,605.780762 473.468768,607.56297 469.904297,611.127441 C466.316063,614.691912 464.521973,618.992976 464.521973,624.030762 L464.521973,639.714355 C464.521973,644.752141 466.316063,649.053205 469.904297,652.617676 C473.468768,656.20591 477.781713,658 482.843262,658 C487.881047,658 492.193992,656.20591 495.782227,652.617676 C499.346698,649.053205 501.128906,644.752141 501.128906,639.714355 L501.128906,624.030762 C501.128906,618.992976 499.346698,614.691912 495.782227,611.127441 C492.193992,607.56297 487.881047,605.780762 482.843262,605.780762 Z M493.928711,639.714355 C493.928711,642.756037 492.847504,645.358062 490.685059,647.520508 C488.49885,649.682954 485.884944,650.76416 482.843262,650.76416 C479.777817,650.76416 477.163911,649.682954 475.001465,647.520508 C472.815256,645.358062 471.722168,642.756037 471.722168,639.714355 L471.722168,624.030762 C471.722168,620.98908 472.815256,618.387055 475.001465,616.224609 C477.163911,614.062164 479.777817,612.980957 482.843262,612.980957 C485.884944,612.980957 488.49885,614.062164 490.685059,616.224609 C492.847504,618.387055 493.928711,620.98908 493.928711,624.030762 L493.928711,639.714355 Z M550.033203,628.022949 C551.031255,628.022949 551.886715,627.678389 552.599609,626.989258 C553.28874,626.276364 553.633301,625.420903 553.633301,624.422852 C553.633301,623.4248 553.28874,622.581221 552.599609,621.89209 C551.886715,621.179196 551.031255,620.822754 550.033203,620.822754 L545.185547,620.822754 L548.75,610.592773 C549.082684,609.642248 549.035158,608.727381 548.607422,607.848145 C548.179685,606.945145 547.502446,606.327313 546.575684,605.994629 C545.625158,605.661945 544.698409,605.709471 543.79541,606.137207 C542.916174,606.564944 542.310223,607.242183 541.977539,608.168945 L537.521973,620.822754 L531.854492,620.822754 L535.418945,610.592773 C535.751629,609.642248 535.704104,608.727381 535.276367,607.848145 C534.848631,606.945145 534.171391,606.327313 533.244629,605.994629 C532.294103,605.661945 531.367355,605.709471 530.464355,606.137207 C529.585119,606.564944 528.979168,607.242183 528.646484,608.168945 L524.190918,620.822754 L512.321289,620.822754 C511.323237,620.822754 510.479658,621.179196 509.790527,621.89209 C509.077633,622.581221 508.721191,623.4248 508.721191,624.422852 C508.721191,625.420903 509.077633,626.276364 509.790527,626.989258 C510.479658,627.678389 511.323237,628.022949 512.321289,628.022949 L521.624512,628.022949 L518.772949,635.936035 L511.323242,635.936035 C510.32519,635.936035 509.481612,636.292477 508.79248,637.005371 C508.079586,637.718265 507.723145,638.561844 507.723145,639.536133 C507.723145,640.534185 508.079586,641.389645 508.79248,642.102539 C509.481612,642.815433 510.32519,643.171875 511.323242,643.171875 L516.206543,643.171875 L512.677734,653.187988 C512.34505,654.114751 512.392576,655.029618 512.820312,655.932617 C513.248049,656.835616 513.93717,657.453449 514.887695,657.786133 C515.267906,657.928712 515.659991,658 516.063965,658 C517.774911,658 518.915524,657.192065 519.48584,655.576172 L523.870117,643.171875 L529.537598,643.171875 L526.008789,653.187988 C525.676105,654.114751 525.723631,655.029618 526.151367,655.932617 C526.579104,656.835616 527.268224,657.453449 528.21875,657.786133 C528.59896,657.928712 528.991046,658 529.39502,658 C531.105966,658 532.246579,657.192065 532.816895,655.576172 L537.201172,643.171875 L549.035156,643.171875 C550.033208,643.171875 550.888668,642.815433 551.601562,642.102539 C552.290694,641.389645 552.635254,640.534185 552.635254,639.536133 C552.635254,638.561844 552.290694,637.718265 551.601562,637.005371 C550.888668,636.292477 550.033208,635.936035 549.035156,635.936035 L539.731934,635.936035 L542.619141,628.022949 L550.033203,628.022949 Z M526.400879,635.936035 L529.288086,628.022949 L534.955566,628.022949 L532.104004,635.936035 L526.400879,635.936035 Z" id="*347*100#"></path>
        </g>
    </g>
</svg>