<?xml version="1.0" encoding="UTF-8"?>
<svg width="207px" height="60px" viewBox="0 0 207 60" version="1.1" xmlns="http://www.w3.org/2000/svg" xmlns:xlink="http://www.w3.org/1999/xlink">
    <!-- Generator: Sketch 54.1 (76490) - https://sketchapp.com -->
    <title>Rectangle 1 + Imported Layers</title>
    <desc>Created with Sketch.</desc>
    <g id="Page-1" stroke="none" stroke-width="1" fill="none" fill-rule="evenodd">
        <g id="Desktop-HD-Copy" transform="translate(-84.000000, -689.000000)">
            <g id="Rectangle-1-+-Imported-Layers" transform="translate(84.000000, 689.000000)">
                <rect id="Rectangle-1" stroke="#000000" stroke-width="3" x="1.5" y="1.5" width="203.4" height="57" rx="15"></rect>
                <path d="M40.0264229,17.4985714 C43.9177143,17.4985714 46.4060343,21.2636 46.4060343,21.2636 C46.4060343,21.2636 42.6101943,23.3234286 42.6101943,27.7968857 C42.6101943,33.1063714 47.3786514,34.6508286 47.3786514,34.6508286 C47.3786514,34.6508286 43.6149029,43.5811714 39.3887086,43.5811714 C37.0122971,43.5811714 36.8534857,42.2140286 33.69536,42.2140286 C30.9527771,42.2140286 30.0278857,43.5811714 27.9386514,43.5811714 C23.9510857,43.5811714 18.8,34.8762 18.8,27.7968857 C18.8,20.4433143 24.0152686,17.4985714 27.28448,17.4985714 C30.1554286,17.4985714 31.35104,19.1880286 33.6632686,19.1880286 C35.6093257,19.1880286 37.1406629,17.4985714 40.0264229,17.4985714 L40.0264229,17.4985714 Z M39.35744,10 C39.9309714,13.6042857 36.66176,18.062 32.7548343,17.917 C32.18048,13.3308571 36.39104,10.2419429 39.35744,10 Z M68.8557395,19.3770028 L71.5104037,19.3770028 L78.5642257,37.4287193 L75.9095615,37.4287193 L73.9375252,31.9929783 L66.3022054,31.9929783 L64.2796041,37.4287193 L61.8272,37.4287193 L68.8557395,19.3770028 Z M67.0606808,29.970377 L73.1790498,29.970377 L70.1704303,21.5512992 L70.1198653,21.5512992 L67.0606808,29.970377 Z M80.0558942,24.3576585 L82.204908,24.3576585 L82.204908,26.1274346 L82.2554731,26.1274346 C82.6094301,25.4026655 83.1656398,24.8759517 83.9241191,24.5472773 C84.6825984,24.218603 85.5169131,24.0542683 86.4270882,24.0542683 C87.4383939,24.0542683 88.3190594,24.2396715 89.0691112,24.6104836 C89.8191629,24.9812957 90.4427921,25.4827273 90.9400174,26.1147933 C91.4372427,26.7468594 91.8122629,27.4758313 92.0650893,28.301731 C92.3179158,29.1276306 92.4443271,30.0040824 92.4443271,30.9311127 C92.4443271,31.8581429 92.3221295,32.7345947 92.0777306,33.5604943 C91.8333317,34.386394 91.4625252,35.1069385 90.9652999,35.7221495 C90.4680746,36.3373604 89.8444454,36.8219372 89.0943937,37.1758942 C88.344342,37.5298512 87.4721039,37.706827 86.4776533,37.706827 C86.1574065,37.706827 85.7992411,37.6731173 85.4031463,37.6056969 C85.0070516,37.5382765 84.6151765,37.4287201 84.2275093,37.2770242 C83.8398421,37.1253284 83.4732493,36.9188565 83.1277199,36.6576026 C82.7821904,36.3963486 82.4914444,36.0718929 82.2554731,35.6842257 L82.204908,35.6842257 L82.204908,42.409375 L80.0558942,42.409375 L80.0558942,24.3576585 Z M90.1689006,30.7794176 C90.1689006,30.1726341 90.0888401,29.578501 89.9287167,28.9970002 C89.7685933,28.4154994 89.5241981,27.897213 89.1955237,27.4421254 C88.8668494,26.9870379 88.4454783,26.6246588 87.9313979,26.3549772 C87.4173175,26.0852957 86.8147569,25.950457 86.123698,25.950457 C85.3989289,25.950457 84.7837272,26.0937231 84.2780744,26.3802598 C83.7724215,26.6667964 83.3594779,27.0418166 83.0392311,27.5053317 C82.7189843,27.9688468 82.4872302,28.4955607 82.3439619,29.085489 C82.2006936,29.6754173 82.1290605,30.2737642 82.1290605,30.8805476 C82.1290605,31.5210412 82.2049073,32.1404567 82.3566031,32.7388126 C82.508299,33.3371684 82.7484805,33.8638823 83.0771548,34.3189698 C83.4058292,34.7740574 83.831414,35.1406502 84.3539219,35.4187593 C84.8764298,35.6968683 85.5084864,35.8359208 86.2501106,35.8359208 C86.9917348,35.8359208 87.6111502,35.6926546 88.1083756,35.406118 C88.6056009,35.1195814 89.0059034,34.7403475 89.3092951,34.2684048 C89.6126868,33.7964621 89.8317997,33.2571072 89.9666405,32.6503238 C90.1014813,32.0435403 90.1689006,31.4199112 90.1689006,30.7794176 Z M95.0484262,24.3576585 L97.1974401,24.3576585 L97.1974401,26.1274346 L97.2480051,26.1274346 C97.6019621,25.4026655 98.1581719,24.8759517 98.9166512,24.5472773 C99.6751305,24.218603 100.509445,24.0542683 101.41962,24.0542683 C102.430926,24.0542683 103.311592,24.2396715 104.061643,24.6104836 C104.811695,24.9812957 105.435324,25.4827273 105.932549,26.1147933 C106.429775,26.7468594 106.804795,27.4758313 107.057621,28.301731 C107.310448,29.1276306 107.436859,30.0040824 107.436859,30.9311127 C107.436859,31.8581429 107.314662,32.7345947 107.070263,33.5604943 C106.825864,34.386394 106.455057,35.1069385 105.957832,35.7221495 C105.460607,36.3373604 104.836977,36.8219372 104.086926,37.1758942 C103.336874,37.5298512 102.464636,37.706827 101.470185,37.706827 C101.149939,37.706827 100.791773,37.6731173 100.395678,37.6056969 C99.9995837,37.5382765 99.6077086,37.4287201 99.2200414,37.2770242 C98.8323742,37.1253284 98.4657814,36.9188565 98.120252,36.6576026 C97.7747225,36.3963486 97.4839765,36.0718929 97.2480051,35.6842257 L97.1974401,35.6842257 L97.1974401,42.409375 L95.0484262,42.409375 L95.0484262,24.3576585 Z M105.161433,30.7794176 C105.161433,30.1726341 105.081372,29.578501 104.921249,28.9970002 C104.761125,28.4154994 104.51673,27.897213 104.188056,27.4421254 C103.859381,26.9870379 103.43801,26.6246588 102.92393,26.3549772 C102.40985,26.0852957 101.807289,25.950457 101.11623,25.950457 C100.391461,25.950457 99.7762593,26.0937231 99.2706064,26.3802598 C98.7649536,26.6667964 98.35201,27.0418166 98.0317631,27.5053317 C97.7115163,27.9688468 97.4797623,28.4955607 97.336494,29.085489 C97.1932256,29.6754173 97.1215926,30.2737642 97.1215926,30.8805476 C97.1215926,31.5210412 97.1974394,32.1404567 97.3491352,32.7388126 C97.5008311,33.3371684 97.7410126,33.8638823 98.0696869,34.3189698 C98.3983613,34.7740574 98.823946,35.1406502 99.346454,35.4187593 C99.8689619,35.6968683 100.501019,35.8359208 101.242643,35.8359208 C101.984267,35.8359208 102.603682,35.6926546 103.100908,35.406118 C103.598133,35.1195814 103.998435,34.7403475 104.301827,34.2684048 C104.605219,33.7964621 104.824332,33.2571072 104.959173,32.6503238 C105.094013,32.0435403 105.161433,31.4199112 105.161433,30.7794176 Z M127.789285,24.6610487 C127.654444,23.3632063 127.186722,22.4235489 126.386105,21.8420481 C125.585488,21.2605473 124.561556,20.9698013 123.314279,20.9698013 C122.808626,20.9698013 122.311409,21.0203658 121.822611,21.1214964 C121.333813,21.222627 120.899801,21.3911754 120.520561,21.6271467 C120.141322,21.863118 119.837934,22.1791463 119.610391,22.5752411 C119.382847,22.9713358 119.269077,23.4643399 119.269077,24.0542683 C119.269077,24.6104864 119.433411,25.0613534 119.762086,25.4068829 C120.09076,25.7524123 120.528986,26.0347309 121.076777,26.2538472 C121.624567,26.4729634 122.243983,26.654153 122.935042,26.7974213 C123.6261,26.9406896 124.32979,27.0965969 125.046132,27.2651478 C125.762473,27.4336988 126.466163,27.6317432 127.157222,27.8592869 C127.848281,28.0868307 128.467696,28.3944316 129.015487,28.7820988 C129.563277,29.169766 130.001503,29.6585564 130.330178,30.2484847 C130.658852,30.8384131 130.823187,31.5800261 130.823187,32.4733461 C130.823187,33.4340866 130.608287,34.2557601 130.178482,34.9383915 C129.748678,35.6210228 129.196681,36.1772326 128.522478,36.6070375 C127.848274,37.0368425 127.09402,37.348657 126.259692,37.5424906 C125.425365,37.7363242 124.595264,37.8332396 123.769365,37.8332396 C122.758059,37.8332396 121.801547,37.7068283 120.899799,37.4540018 C119.998051,37.2011754 119.205874,36.8177277 118.523242,36.3036473 C117.840611,35.7895669 117.301256,35.1322281 116.905161,34.3316111 C116.509067,33.5309941 116.311022,32.5829092 116.311022,31.487328 L118.586449,31.487328 C118.586449,32.2458073 118.733929,32.8989324 119.028893,33.446723 C119.323857,33.9945136 119.711518,34.4453806 120.191889,34.7993376 C120.672259,35.1532946 121.232682,35.4145447 121.873176,35.5830956 C122.51367,35.7516466 123.171008,35.8359208 123.845212,35.8359208 C124.384575,35.8359208 124.928144,35.7853563 125.475934,35.6842257 C126.023725,35.5830951 126.516729,35.410333 126.954962,35.1659341 C127.393194,34.9215352 127.747146,34.5886521 128.016827,34.1672747 C128.286509,33.7458974 128.421348,33.2065424 128.421348,32.5491937 C128.421348,31.9255552 128.257013,31.4199099 127.928339,31.0322427 C127.599664,30.6445755 127.161438,30.3285472 126.613648,30.0841484 C126.065857,29.8397495 125.446442,29.6417051 124.755383,29.4900092 C124.064324,29.3383134 123.360634,29.1824061 122.644293,29.0222827 C121.927951,28.8621593 121.224261,28.676756 120.533203,28.4660673 C119.842144,28.2553786 119.222728,27.9772738 118.674938,27.6317443 C118.127147,27.2862149 117.688921,26.8395615 117.360247,26.2917709 C117.031572,25.7439804 116.867238,25.0571455 116.867238,24.2312459 C116.867238,23.3210707 117.052641,22.5331069 117.423453,21.8673306 C117.794265,21.2015544 118.287269,20.653772 118.90248,20.2239671 C119.517691,19.7941621 120.217167,19.4739201 121.000929,19.2632315 C121.784691,19.0525428 122.58951,18.9472 123.415409,18.9472 C124.34244,18.9472 125.202037,19.0567565 125.994226,19.2758727 C126.786415,19.4949889 127.481678,19.8405132 128.080034,20.3124559 C128.678389,20.7843985 129.150325,21.3785317 129.495855,22.0948733 C129.841384,22.8112148 130.031001,23.666598 130.064711,24.6610487 L127.789285,24.6610487 Z M136.360058,24.3576585 L138.964157,24.3576585 L138.964157,26.2538472 L136.360058,26.2538472 L136.360058,34.3695349 C136.360058,34.6223613 136.381126,34.8246194 136.423264,34.9763152 C136.465402,35.1280111 136.545462,35.245995 136.663448,35.3302705 C136.781434,35.4145459 136.945768,35.4693242 137.156457,35.4946068 C137.367146,35.5198895 137.641037,35.5325306 137.978139,35.5325306 L138.964157,35.5325306 L138.964157,37.4287193 L137.320793,37.4287193 C136.764575,37.4287193 136.288426,37.3907959 135.892331,37.314948 C135.496236,37.2391001 135.175994,37.1000476 134.931595,36.8977865 C134.687197,36.6955253 134.506007,36.408993 134.388021,36.0381809 C134.270036,35.6673688 134.211044,35.1785784 134.211044,34.571795 L134.211044,26.2538472 L131.986182,26.2538472 L131.986182,24.3576585 L134.211044,24.3576585 L134.211044,20.4388685 L136.360058,20.4388685 L136.360058,24.3576585 Z M140.632803,30.9058301 C140.632803,29.9450897 140.767642,29.0475694 141.037323,28.2132422 C141.307005,27.378915 141.711521,26.6541568 142.250884,26.0389458 C142.790247,25.4237348 143.456013,24.9391581 144.248203,24.5852011 C145.040392,24.2312441 145.950554,24.0542683 146.978714,24.0542683 C148.02373,24.0542683 148.938106,24.2312441 149.721867,24.5852011 C150.505629,24.9391581 151.167182,25.4237348 151.706545,26.0389458 C152.245908,26.6541568 152.650424,27.378915 152.920106,28.2132422 C153.189787,29.0475694 153.324626,29.9450897 153.324626,30.9058301 C153.324626,31.8665706 153.189787,32.7598772 152.920106,33.5857769 C152.650424,34.4116765 152.245908,35.132221 151.706545,35.747432 C151.167182,36.362643 150.505629,36.843006 149.721867,37.1885354 C148.938106,37.5340649 148.02373,37.706827 146.978714,37.706827 C145.950554,37.706827 145.040392,37.5340649 144.248203,37.1885354 C143.456013,36.843006 142.790247,36.362643 142.250884,35.747432 C141.711521,35.132221 141.307005,34.4116765 141.037323,33.5857769 C140.767642,32.7598772 140.632803,31.8665706 140.632803,30.9058301 Z M142.908229,30.9058301 C142.908229,31.6980196 143.013572,32.4017093 143.224261,33.0169202 C143.434949,33.6321312 143.725696,34.1462039 144.096508,34.5591537 C144.46732,34.9721036 144.901332,35.2881319 145.398557,35.5072481 C145.895782,35.7263643 146.422496,35.8359208 146.978714,35.8359208 C147.534933,35.8359208 148.061646,35.7263643 148.558872,35.5072481 C149.056097,35.2881319 149.490109,34.9721036 149.860921,34.5591537 C150.231733,34.1462039 150.522479,33.6321312 150.733168,33.0169202 C150.943857,32.4017093 151.0492,31.6980196 151.0492,30.9058301 C151.0492,30.1136407 150.943857,29.409951 150.733168,28.79474 C150.522479,28.1795291 150.231733,27.6612427 149.860921,27.2398653 C149.490109,26.8184879 149.056097,26.4982459 148.558872,26.2791297 C148.061646,26.0600135 147.534933,25.950457 146.978714,25.950457 C146.422496,25.950457 145.895782,26.0600135 145.398557,26.2791297 C144.901332,26.4982459 144.46732,26.8184879 144.096508,27.2398653 C143.725696,27.6612427 143.434949,28.1795291 143.224261,28.79474 C143.013572,29.409951 142.908229,30.1136407 142.908229,30.9058301 Z M155.77703,24.3576585 L157.799631,24.3576585 L157.799631,27.1134527 L157.850196,27.1134527 C158.372704,26.0515817 159.013188,25.2678316 159.771668,24.7621787 C160.530147,24.2565259 161.490873,24.0205581 162.653874,24.0542683 L162.653874,26.3296947 C161.794265,26.3296947 161.061079,26.4476786 160.454296,26.6836499 C159.847512,26.9196213 159.358722,27.2651455 158.98791,27.7202331 C158.617098,28.1753207 158.34742,28.7273168 158.178869,29.3762379 C158.010318,30.0251591 157.926044,30.7709858 157.926044,31.6137406 L157.926044,37.4287193 L155.77703,37.4287193 L155.77703,24.3576585 Z M174.96646,33.2823867 C174.679923,34.7487799 174.047867,35.8527721 173.070271,36.5943963 C172.092676,37.3360205 170.862272,37.706827 169.379024,37.706827 C168.334008,37.706827 167.42806,37.5382786 166.661153,37.2011767 C165.894246,36.8640748 165.249549,36.3921392 164.727041,35.7853558 C164.204533,35.1785723 163.812658,34.4538141 163.551404,33.6110594 C163.29015,32.7683046 163.14267,31.8497157 163.10896,30.8552651 C163.10896,29.8608145 163.260653,28.950653 163.564045,28.1247534 C163.867437,27.2988537 164.293022,26.5825229 164.840812,25.9757395 C165.388603,25.3689561 166.037514,24.8970205 166.787566,24.5599186 C167.537618,24.2228167 168.359291,24.0542683 169.252611,24.0542683 C170.415613,24.0542683 171.380552,24.2944498 172.147459,24.77482 C172.914366,25.2551902 173.529568,25.8661782 173.993083,26.6078024 C174.456598,27.3494266 174.77684,28.158459 174.953819,29.0349239 C175.130797,29.9113889 175.20243,30.7457036 175.16872,31.537893 L165.384386,31.537893 C165.367531,32.1109663 165.43495,32.6545349 165.586646,33.1686153 C165.738342,33.6826957 165.982737,34.1377765 166.319839,34.5338712 C166.656941,34.9299659 167.08674,35.2459942 167.609248,35.4819656 C168.131756,35.7179369 168.746957,35.8359208 169.454871,35.8359208 C170.365046,35.8359208 171.110873,35.6252353 171.692374,35.2038579 C172.273875,34.7824805 172.657322,34.1419965 172.842728,33.2823867 L174.96646,33.2823867 Z M172.893294,29.6417043 C172.859583,29.1360515 172.745813,28.6556885 172.55198,28.2006009 C172.358146,27.7455133 172.096896,27.3536383 171.768222,27.0249639 C171.439547,26.6962896 171.051886,26.4350395 170.605226,26.2412059 C170.158566,26.0473723 169.665562,25.950457 169.126199,25.950457 C168.56998,25.950457 168.068549,26.0473723 167.621889,26.2412059 C167.175229,26.4350395 166.791781,26.7005033 166.471534,27.0376052 C166.151288,27.3747071 165.898465,27.7665822 165.713059,28.2132422 C165.527653,28.6599022 165.418096,29.1360515 165.384386,29.6417043 L172.893294,29.6417043 Z" id="Imported-Layers" fill="#000000"></path>
            </g>
        </g>
    </g>
</svg>