<?xml version="1.0" encoding="UTF-8"?>
<svg width="207px" height="60px" viewBox="0 0 207 60" version="1.1" xmlns="http://www.w3.org/2000/svg" xmlns:xlink="http://www.w3.org/1999/xlink">
    <!-- Generator: Sketch 54.1 (76490) - https://sketchapp.com -->
    <title>Rectangle 1 + Fill 1 + google play</title>
    <desc>Created with Sketch.</desc>
    <g id="Page-1" stroke="none" stroke-width="1" fill="none" fill-rule="evenodd">
        <g id="Desktop-HD-Copy" transform="translate(-322.000000, -689.000000)">
            <g id="Rectangle-1-+-Fill-1-+-google-play" transform="translate(322.000000, 689.000000)">
                <rect id="Rectangle-1" stroke="#000000" stroke-width="3" x="1.5" y="1.5" width="203.4" height="57" rx="15"></rect>
                <path d="M136.695041,35.9146726 L135.318221,37.2291667 C135.000034,37.4061012 134.683553,37.6115179 134.367925,37.757381 C133.411658,38.1966964 132.439183,38.3071726 131.575045,38.3071726 C130.65546,38.3071726 129.213808,38.246756 127.743153,37.1704762 C125.700102,35.7144345 124.806961,33.2114583 124.806961,31.0304167 C124.806961,26.5147024 128.440093,24.3 131.403583,24.3 C132.439183,24.3 133.502934,24.562381 134.367925,25.115625 C135.806165,26.0779762 136.178094,27.3286012 136.384531,27.9983631 L129.6173,30.7645833 L127.401081,30.9389286 C128.118494,34.6416071 130.59404,36.7950298 133.329766,36.7950298 C134.696349,36.7950298 135.710623,36.343631 136.641299,35.8784226 C136.641299,35.8784226 136.828116,35.7800298 136.695041,35.9146726 L136.695041,35.9146726 Z M132.612352,28.549881 L127.372077,30.8508929 C127.343073,30.3278571 127.285066,29.8048214 127.285066,29.3137202 C127.285066,26.166875 129.444131,25.260625 130.59404,25.260625 C132.146588,25.260625 133.447486,26.6044643 133.447486,27.7679167 C133.447486,28.1735714 133.161715,28.3479167 132.612352,28.549881 Z M122.54553,35.6894048 C122.54553,36.8209226 122.745143,36.996994 123.691174,37.0858929 C124.184236,37.1445833 124.675591,37.1704762 125.161829,37.2291667 L124.097225,37.8704464 L119.024147,37.8704464 C119.689525,36.996994 119.803833,36.9098214 119.803833,36.3280952 L119.803833,35.6781845 L119.792743,18.3610417 L117.552639,18.3610417 L119.709145,17.3097917 L123.825955,17.3097917 C122.933667,17.8328274 122.666663,18.1513095 122.552354,19.170625 L122.54553,35.6894048 Z M114.677866,25.7292857 C115.338979,26.2790774 116.718358,27.4459821 116.718358,29.6589583 C116.718358,31.8158333 115.516413,32.8325595 114.304231,33.7949107 C113.932302,34.1738095 113.497247,34.5846429 113.497247,35.219881 C113.497247,35.8646131 113.932302,36.2141667 114.245371,36.4748214 L115.285237,37.286994 C116.549454,38.3667262 117.701922,39.3566964 117.701922,41.3677083 C117.701922,44.1071726 115.081358,46.8699405 110.129413,46.8699405 C105.958007,46.8699405 103.941401,44.8597917 103.941401,42.7046429 C103.941401,41.6559821 104.457495,40.1705952 106.16018,39.153006 C107.944757,38.0491071 110.362295,37.9015179 111.657222,37.8152083 C111.252878,37.286994 110.791379,36.73375 110.791379,35.8309524 C110.791379,35.3372619 110.938103,35.0429464 111.079709,34.6959821 C110.764934,34.7261905 110.4476,34.7572619 110.15927,34.7572619 C107.10621,34.7572619 105.380494,32.4527976 105.380494,30.181994 C105.380494,28.8424702 105.984452,27.3562202 107.224784,26.2790774 C108.866049,24.9119345 110.822941,24.6763095 112.378048,24.6763095 L118.310146,24.6763095 L116.465855,25.7292857 L114.677866,25.7292857 Z M112.638228,38.6593155 C112.401934,38.628244 112.260328,38.628244 111.975409,38.628244 C111.714377,38.628244 110.15927,38.6852083 108.954766,39.0943155 C108.317539,39.3299405 106.475808,40.0264583 106.475808,42.0952976 C106.475808,44.1598214 108.464263,45.6486607 111.540355,45.6486607 C114.304231,45.6486607 115.771474,44.3082738 115.771474,42.5035417 C115.771474,41.0181548 114.822031,40.2344643 112.638228,38.6593155 L112.638228,38.6593155 Z M113.465685,33.1251488 C113.010157,33.5860417 112.233883,33.9407738 111.512204,33.9407738 C109.039217,33.9407738 107.9149,30.7058929 107.9149,28.7552976 C107.9149,27.9983631 108.060771,27.2112202 108.547862,26.6044643 C109.006802,26.0184226 109.815491,25.6395238 110.561909,25.6395238 C112.954709,25.6395238 114.18907,28.9020238 114.18907,30.996756 C114.18907,31.5241071 114.131062,32.4527976 113.465685,33.1251488 Z M96.8303913,38.246756 C92.2546406,38.246756 89.8063922,34.6416071 89.8063922,31.377381 C89.8063922,27.5633631 92.8841902,24.3 97.2620337,24.3 C101.494006,24.3 104.144427,27.6522619 104.144427,31.1719643 C104.144427,34.6096726 101.524716,38.246756 96.8303913,38.246756 Z M100.430255,35.890506 C99.7674363,36.8209226 98.6183803,37.3724405 97.4923567,37.3724405 C94.0033894,37.3724405 92.597566,32.6262798 92.597566,29.7487202 C92.597566,28.4920536 92.7980323,27.2112202 93.9223499,26.1919048 C94.6116128,25.5791071 95.5678799,25.2036607 96.5173226,25.2036607 C100.087329,25.2036607 101.295246,30.0956845 101.295246,32.6608036 C101.295246,33.7949107 101.126342,34.9583631 100.430255,35.890506 Z M81.5104982,38.246756 C76.9338944,38.246756 74.4899113,34.6416071 74.4899113,31.377381 C74.4899113,27.5633631 77.5685623,24.3 81.9446997,24.3 C86.1741128,24.3 88.8219745,27.6522619 88.8219745,31.1719643 C88.8219745,34.6096726 86.2056756,38.246756 81.5104982,38.246756 Z M85.1112147,35.890506 C84.4466902,36.8209226 83.2993403,37.3724405 82.1758758,37.3724405 C78.6928799,37.3724405 77.2810851,32.6262798 77.2810851,29.7487202 C77.2810851,28.4920536 77.4806984,27.2112202 78.606722,26.1919048 C79.2976911,25.5791071 80.2437216,25.2036607 81.1965764,25.2036607 C84.7631711,25.2036607 85.9744995,30.0956845 85.9744995,32.6608036 C85.9744995,33.7949107 85.8021838,34.9583631 85.1112147,35.890506 Z M72.6601228,37.2360714 L68.8009327,38.1302381 C67.2372953,38.3796726 65.8331779,38.5988988 64.3463148,38.5988988 C56.902616,38.5988988 54.0662307,33.0552381 54.0662307,28.7164583 C54.0662307,23.4179167 58.0849409,18.5051786 64.9673339,18.5051786 C66.4234873,18.5051786 67.8241924,18.7218155 69.1003526,19.0739583 C71.1229299,19.6487798 72.0689604,20.357381 72.6601228,20.7725298 L70.4183121,22.9268155 L69.4731347,23.1408631 L70.1470428,22.0542262 C69.2342812,21.1522917 67.5563353,19.487381 64.3719063,19.487381 C60.1143426,19.487381 56.902616,22.7619643 56.902616,27.5426488 C56.902616,32.6772024 60.5698703,37.5070833 66.4516379,37.5070833 C68.1799136,37.5070833 69.0696429,37.1558036 69.8774795,36.8278274 L69.8774795,32.4260417 L65.8024682,32.6478571 L67.9623863,31.4740476 L73.6812216,31.4740476 L72.981722,32.1550298 C72.7931984,32.3172917 72.7676069,32.3725298 72.7147179,32.5900298 C72.6865673,32.8386012 72.6601228,33.6291964 72.6601228,33.9071131 L72.6601228,37.2360714 Z M144.992641,36.0389583 L144.992641,43.4572619 L143.536488,43.4572619 L143.536488,24.580506 L144.992641,24.580506 L144.992641,26.7304762 C145.941231,25.3408929 147.674625,24.2395833 149.687818,24.2395833 C153.298772,24.2395833 155.730812,27.0109821 155.730812,31.3980952 C155.730812,35.7558631 153.298772,38.5850893 149.687818,38.5850893 C147.787227,38.5850893 146.084543,37.5933929 144.992641,36.0389583 Z M154.166322,31.3980952 C154.166322,34.7097917 152.462784,37.2533333 149.442141,37.2533333 C147.566288,37.2533333 145.772327,35.7075298 144.992641,34.404256 L144.992641,28.3617262 C145.772327,27.0610417 147.566288,25.5696131 149.442141,25.5696131 C152.462784,25.5696131 154.166322,28.0915774 154.166322,31.3980952 Z M157.719268,19.3682738 L159.174568,19.3682738 L159.174568,38.2450298 L157.719268,38.2450298 L157.719268,19.3682738 Z M175.513854,42.2368452 C175.825216,42.3775298 176.356665,42.4638393 176.693619,42.4638393 C177.584202,42.4638393 178.204368,42.0952976 178.761408,40.79375 L179.823453,38.3589583 L174.087557,24.580506 L175.711761,24.580506 L180.632143,36.5205655 L185.504754,24.580506 L187.15199,24.580506 L180.156142,41.2503274 C179.430198,42.9678869 178.287966,43.793869 176.719211,43.793869 C176.248328,43.793869 175.627309,43.7092857 175.26391,43.5962202 L175.513854,42.2368452 Z M171.260555,38.2044643 C171.163308,37.730625 171.089945,37.3128869 171.036203,36.9641964 C170.991845,36.616369 170.966253,36.2607738 170.966253,35.8991369 C170.46722,36.6405357 169.760043,37.2576488 168.856665,37.7435714 C167.952434,38.2329464 167.093414,38.4728869 165.915355,38.4728869 C164.496736,38.4728869 163.39545,38.119881 162.609793,37.4035119 C161.826695,36.688006 161.432586,35.71875 161.432586,34.4922917 C161.432586,33.2675595 162.003276,32.2732738 163.141242,31.5128869 C164.279208,30.7490476 165.749864,30.3692857 167.570268,30.3692857 L170.966253,30.3692857 L170.966253,28.6715774 C170.966253,27.6936905 170.636977,26.9246726 169.979277,26.3671131 C169.319017,25.8086905 168.392607,25.5264583 167.191515,25.5264583 C166.093642,25.5264583 165.20306,25.7845238 164.524886,26.2868452 C163.852684,26.7995238 163.514024,27.4347619 163.514024,28.2003274 L162.023749,28.2003274 L161.993039,28.1269643 C161.939297,27.0947024 162.405914,26.1893155 163.39801,25.4073512 C164.385839,24.62625 165.679914,24.2335417 167.272555,24.2335417 C168.860077,24.2335417 170.144768,24.6202083 171.112978,25.3918155 C172.080334,26.1556548 172.565719,27.2595536 172.565719,28.7026488 L172.565719,35.4434226 C172.565719,35.927619 172.588751,36.3954167 172.648465,36.851131 C172.709884,37.3077083 172.807985,37.7634226 172.938501,38.2044643 L171.260555,38.2044643 Z M166.093642,37.1307738 C167.330562,37.1307738 168.219438,36.851131 169.127934,36.2978869 C170.03046,35.7480952 170.644654,35.0308631 170.966253,34.1625893 L170.966253,31.5387798 L167.554061,31.5387798 C166.250603,31.5387798 165.171497,31.830506 164.322714,32.4191369 C163.472225,33.0060417 163.041435,33.716369 163.041435,34.5423512 C163.041435,35.3217262 163.314411,35.944881 163.856949,36.416994 C164.401194,36.8942857 165.145052,37.1307738 166.093642,37.1307738 L166.093642,37.1307738 Z" id="Fill-1" fill="#000000"></path>
                <path d="M18.773694,43.3980897 C18.3050435,43.2718544 18,42.8065678 18,42.0865578 L18,18.3200879 C18,17.653249 18.2582848,17.2035147 18.6677161,17.04 L18.6677161,17.04 L30.3470486,30.284716 L18.773694,43.3980897 L18.773694,43.3980897 Z M20.381438,42.8936037 L34.4396685,34.9258706 L31.0155866,31.0428583 L20.381438,42.8936037 L20.381438,42.8936037 Z M34.5364747,25.53782 L20.6741608,17.6792998 L31.0358567,29.504251 L34.5364747,25.53782 L34.5364747,25.53782 Z M35.4770214,26.0710143 L40.9075127,29.1495498 C41.9357112,29.7324336 41.9451141,30.672036 40.9075127,31.2601136 L35.3396353,34.4157996 L31.707963,30.2712707 L35.4770214,26.0710143 L35.4770214,26.0710143 Z" id="google-play" fill="#000000"></path>
            </g>
        </g>
    </g>
</svg>