<?xml version="1.0" encoding="UTF-8"?>
<svg width="34px" height="48px" viewBox="0 0 34 48" version="1.1" xmlns="http://www.w3.org/2000/svg" xmlns:xlink="http://www.w3.org/1999/xlink">
    <!-- Generator: Sketch 54.1 (76490) - https://sketchapp.com -->
    <title>pos</title>
    <desc>Created with Sketch.</desc>
    <g id="Page-1" stroke="none" stroke-width="1" fill="none" fill-rule="evenodd">
        <g id="pos" fill="#442563" fill-rule="nonzero">
            <path d="M29.4569,4.4291 L26.2568,4.4291 L26.2568,1.54078 C26.2568,0.690275 25.5399,0 24.6567,0 L9.1898,0 C8.3065,0 7.5897,0.690275 7.5897,1.54078 L7.5897,4.42926 L4.3896,4.42926 C2.3266,4.42926 0.65613,6.03882 0.65613,8.02447 L0.65613,44.4048 C0.65613,46.3904 2.3265,48 4.3896,48 L29.4568,48 C31.5197,48 33.1902,46.3904 33.1902,44.4048 L33.1902,8.02431 C33.1903,6.03984 31.5198,4.4291 29.4569,4.4291 Z M21.1901,8.02431 L21.1901,4.4291 L21.1901,3.08165 L23.0569,3.08165 L23.0569,4.42933 L23.0569,8.02455 L23.0569,11.4266 L21.1901,11.4266 L21.1901,8.02431 Z M10.79,8.02431 L10.79,4.4291 L10.79,3.08165 L16.6567,3.08165 L16.6567,4.42933 L16.6567,8.02455 L16.6567,11.4266 L10.79,11.4266 L10.79,8.02431 Z M11.7682,43.7824 C11.7682,44.6339 11.0513,45.3233 10.168,45.3233 L7.5899,45.3233 C6.7066,45.3233 5.9897,44.634 5.9897,43.7824 L5.9897,41.1302 C5.9897,40.2787 6.7066,39.5894 7.5899,39.5894 L10.168,39.5894 C11.0513,39.5894 11.7682,40.2787 11.7682,41.1302 L11.7682,43.7824 Z M11.7682,36.0354 C11.7682,36.8868 11.0513,37.5762 10.168,37.5762 L7.5899,37.5762 C6.7066,37.5762 5.9897,36.8869 5.9897,36.0354 L5.9897,33.3832 C5.9897,32.5318 6.7066,31.8424 7.5899,31.8424 L10.168,31.8424 C11.0513,31.8424 11.7682,32.5317 11.7682,33.3832 L11.7682,36.0354 Z M11.7682,28.2894 C11.7682,29.1409 11.0513,29.8303 10.168,29.8303 L7.5899,29.8303 C6.7066,29.8303 5.9897,29.1409 5.9897,28.2894 L5.9897,25.6363 C5.9897,24.7848 6.7066,24.0955 7.5899,24.0955 L10.168,24.0955 C11.0513,24.0955 11.7682,24.7847 11.7682,25.6363 L11.7682,28.2894 Z M19.8129,43.7824 C19.8129,44.6339 19.0961,45.3233 18.2129,45.3233 L15.6337,45.3233 C14.7504,45.3233 14.0336,44.634 14.0336,43.7824 L14.0336,41.1302 C14.0336,40.2787 14.7504,39.5894 15.6337,39.5894 L18.2129,39.5894 C19.0961,39.5894 19.8129,40.2787 19.8129,41.1302 L19.8129,43.7824 Z M19.8129,36.0354 C19.8129,36.8868 19.0961,37.5762 18.2129,37.5762 L15.6337,37.5762 C14.7504,37.5762 14.0336,36.8869 14.0336,36.0354 L14.0336,33.3832 C14.0336,32.5318 14.7504,31.8424 15.6337,31.8424 L18.2129,31.8424 C19.0961,31.8424 19.8129,32.5317 19.8129,33.3832 L19.8129,36.0354 Z M19.8129,28.2894 C19.8129,29.1409 19.0961,29.8303 18.2129,29.8303 L15.6337,29.8303 C14.7504,29.8303 14.0336,29.1409 14.0336,28.2894 L14.0336,25.6363 C14.0336,24.7848 14.7504,24.0955 15.6337,24.0955 L18.2129,24.0955 C19.0961,24.0955 19.8129,24.7847 19.8129,25.6363 L19.8129,28.2894 Z M27.8571,43.7824 C27.8571,44.6339 27.1402,45.3233 26.2569,45.3233 L23.6788,45.3233 C22.7956,45.3233 22.0787,44.634 22.0787,43.7824 L22.0787,41.1302 C22.0787,40.2787 22.7956,39.5894 23.6788,39.5894 L26.2569,39.5894 C27.1403,39.5894 27.8571,40.2787 27.8571,41.1302 L27.8571,43.7824 Z M27.8571,36.0354 C27.8571,36.8868 27.1402,37.5762 26.2569,37.5762 L23.6788,37.5762 C22.7956,37.5762 22.0787,36.8869 22.0787,36.0354 L22.0787,33.3832 C22.0787,32.5318 22.7956,31.8424 23.6788,31.8424 L26.2569,31.8424 C27.1403,31.8424 27.8571,32.5317 27.8571,33.3832 L27.8571,36.0354 Z M27.8571,28.2894 C27.8571,29.1409 27.1402,29.8303 26.2569,29.8303 L23.6788,29.8303 C22.7956,29.8303 22.0787,29.1409 22.0787,28.2894 L22.0787,25.6363 C22.0787,24.7848 22.7956,24.0955 23.6788,24.0955 L26.2569,24.0955 C27.1403,24.0955 27.8571,24.7847 27.8571,25.6363 L27.8571,28.2894 Z M27.8571,19.2925 C27.8571,20.7459 26.6325,21.9242 25.1232,21.9242 L8.7229,21.9242 C7.2136,21.9242 5.99,20.7459 5.99,19.2925 L5.99,16.5736 C5.99,15.119 7.2136,13.9409 8.7229,13.9409 L25.1231,13.9409 C26.6324,13.9409 27.857,15.1192 27.857,16.5736 L27.857,19.2925 L27.8571,19.2925 Z" id="Shape"></path>
        </g>
    </g>
</svg>