<?xml version="1.0" encoding="UTF-8"?>
<svg width="46px" height="52px" viewBox="0 0 46 52" version="1.1" xmlns="http://www.w3.org/2000/svg" xmlns:xlink="http://www.w3.org/1999/xlink">
    <!-- Generator: Sketch 54.1 (76490) - https://sketchapp.com -->
    <title>refresh</title>
    <desc>Created with Sketch.</desc>
    <g id="Page-1" stroke="none" stroke-width="1" fill="none" fill-rule="evenodd">
        <g id="refresh" fill="#442563" fill-rule="nonzero">
            <path d="M32.0894,32.1167 L29.892,32.1182 C29.892,24.9422 24.0576,19.1048 16.8816,19.1018 L16.8816,16.9074 C25.2655,16.9089 32.0894,23.7313 32.0894,32.1167 Z M16.8816,20.7079 L16.8816,22.9053 C21.9598,22.9038 26.096,27.0385 26.096,32.1197 L28.2919,32.1182 C28.2919,25.8277 23.1721,20.7079 16.8816,20.7079 Z M16.8816,24.6242 L16.8816,26.8216 C19.8025,26.8216 22.1782,29.1987 22.1782,32.1197 L24.3756,32.1182 C24.3756,27.9864 21.0119,24.6242 16.8816,24.6242 Z M30.6453,4.73349 L32.2855,6.37371 L28.7139,9.94686 C35.3089,12.3032 40.0528,18.5937 40.0528,25.9881 C40.0528,35.3897 32.4044,43.0397 22.9998,43.0397 C22.8676,43.0397 22.7428,43.0307 22.6091,43.0203 L22.6091,39.8409 L16.5355,45.919 L22.6135,52 L22.6135,48.5843 C22.7413,48.5962 22.8661,48.6066 22.9983,48.6066 C35.4679,48.6066 45.6124,38.4592 45.6124,25.9881 C45.6139,16.2077 39.3605,7.88171 30.6453,4.73349 Z M17.6453,42.1869 C10.8615,39.9345 5.94826,33.5445 5.94826,26.0119 C5.94826,16.6103 13.5967,8.96034 23.0013,8.96034 C23.132,8.96034 23.2598,8.96926 23.3891,8.97966 L23.3891,12.1591 L29.4641,6.08103 L23.3831,0 L23.3831,3.41566 C23.2583,3.40377 23.1305,3.39337 22.9998,3.39337 C10.5272,3.39337 0.38574,13.5408 0.38574,26.0119 C0.38574,35.7344 6.56631,44.0232 15.2013,47.2101 L13.9102,45.9234 L17.6453,42.1869 Z" id="Shape"></path>
        </g>
    </g>
</svg>