<?xml version="1.0" encoding="UTF-8"?>
<svg width="42px" height="43px" viewBox="0 0 42 43" version="1.1" xmlns="http://www.w3.org/2000/svg" xmlns:xlink="http://www.w3.org/1999/xlink">
    <!-- Generator: Sketch 54.1 (76490) - https://sketchapp.com -->
    <title>statistics</title>
    <desc>Created with Sketch.</desc>
    <g id="Page-1" stroke="none" stroke-width="1" fill="none" fill-rule="evenodd">
        <g id="statistics" fill="#442563" fill-rule="nonzero">
            <polygon id="Path" points="20.841 43 24.5574 35.3436 17.2695 35.3542"></polygon>
            <path d="M0.01245,0 L0.01245,33.5553 L41.8144,33.5553 L41.8144,0 L0.01245,0 Z M39.0998,30.8929 L2.72705,30.8929 L2.72705,2.66338 L39.0998,2.66338 L39.0998,30.8929 Z" id="Shape"></path>
            <path d="M11.8986,15.7625 L7.01611,20.7473 L7.01611,29.1587 C7.01611,29.3952 7.21188,29.5878 7.45344,29.5878 L13.3816,29.5878 C13.6232,29.5878 13.819,29.3957 13.819,29.1587 L13.819,16.2558 L12.4518,15.7625 L11.8986,15.7625 Z" id="Path"></path>
            <path d="M23.9733,19.6719 L18.0456,19.6719 C17.8036,19.6719 17.6078,19.864 17.6078,20.1009 L17.6078,29.1583 C17.6078,29.3953 17.8036,29.5878 18.0456,29.5878 L23.9733,29.5878 C24.2149,29.5878 24.4106,29.3957 24.4106,29.1583 L24.4106,20.1005 C24.4106,19.864 24.2149,19.6719 23.9733,19.6719 Z" id="Path"></path>
            <path d="M32.5899,10.445 L31.5129,9.56207 L27.6167,13.7322 L27.6167,29.1583 C27.6167,29.3948 27.8125,29.5874 28.0545,29.5874 L33.9827,29.5874 C34.2242,29.5874 34.42,29.3953 34.42,29.1583 L34.42,10.5871 C34.3957,10.6008 34.3737,10.6178 34.349,10.6302 C34.1224,10.7466 33.8677,10.808 33.6117,10.808 C33.2375,10.8085 32.8758,10.6797 32.5899,10.445 Z" id="Path"></path>
            <path d="M5.56772,20.1046 C5.79713,20.1046 6.02654,20.0161 6.19848,19.841 L11.7786,14.1439 L21.5423,17.6686 C21.8759,17.7882 22.2487,17.6998 22.4893,17.4431 L31.4802,7.82052 L33.5837,9.54599 C33.6869,9.63033 33.8304,9.645 33.949,9.58449 C34.0672,9.52352 34.1373,9.39929 34.1252,9.26773 L33.6692,4.26554 C33.6533,4.08675 33.4921,3.95519 33.3103,3.97123 L28.2115,4.41773 C28.0783,4.42919 27.9652,4.51904 27.9251,4.64418 C27.9124,4.68544 27.9082,4.72807 27.912,4.76979 C27.9199,4.85414 27.9606,4.9339 28.0293,4.98983 L30.1374,6.7185 L21.5969,15.8592 L11.8477,12.3396 C11.5211,12.2227 11.1558,12.3052 10.9147,12.55 L4.93743,18.6519 C4.6029,18.9939 4.61364,19.5366 4.96219,19.8648 C5.13133,20.0248 5.34953,20.1046 5.56772,20.1046 Z" id="Path"></path>
        </g>
    </g>
</svg>