<?xml version="1.0" encoding="UTF-8"?>
<svg width="56px" height="56px" viewBox="0 0 56 56" version="1.1" xmlns="http://www.w3.org/2000/svg" xmlns:xlink="http://www.w3.org/1999/xlink">
    <!-- Generator: Sketch 54.1 (76490) - https://sketchapp.com -->
    <title>Group 11</title>
    <desc>Created with Sketch.</desc>
    <g id="Page-1" stroke="none" stroke-width="1" fill="none" fill-rule="evenodd">
        <g id="1" transform="translate(-773.000000, -1420.000000)" fill-rule="nonzero">
            <g id="Group-8" transform="translate(739.000000, 1356.000000)">
                <g id="Group-11" transform="translate(34.000000, 64.000000)">
                    <path d="M46.6666667,9.88773333 L46.6666667,4.66666667 C46.6634,2.09066667 44.576,0.00326666667 42,0 L4.66666667,0 C2.09066667,0.00326666667 0.00326666667,2.09066667 0,4.66666667 L0,25.2 C0.00723334827,27.5835 1.81393336,29.5768667 4.18506667,29.8186 L7.69346667,38.9258333 C8.62026667,41.3305667 11.3208667,42.5285 13.7258333,41.6028666 L35.6346667,33.1632 C34.1208,37.1175 34.5515334,41.5534 36.7971334,45.1427667 L37.3333333,46.0002667 L37.3333333,55.0666667 C37.3333333,55.5823333 37.751,56 38.2666667,56 L55.0666667,56 C55.5823333,56 56,55.5823333 56,55.0666667 L56,24.2585 C55.9911333,21.0308 54.7061667,17.9382 52.4241667,15.6555 L46.6666667,9.88773333 Z M46.6666667,15.4695333 L49.4993333,22.8228 C50.0544333,24.2662 49.3350667,25.8857667 47.8919,26.4413333 L46.2728,27.0666667 C46.5313333,26.4782 46.6652666,25.8421333 46.6666667,25.2 L46.6666667,15.4695333 Z M1.86666667,25.2 L1.86666667,4.66666667 C1.86666667,3.12060003 3.12060003,1.86666667 4.66666667,1.86666667 L42,1.86666667 C43.5460666,1.86666667 44.8,3.12060003 44.8,4.66666667 L44.8,10.5989333 L44.7918333,10.5989333 L44.8,10.6201667 L44.8,25.2 C44.7927667,25.3628666 44.7715334,25.5243334 44.7365333,25.6834667 L36.1872,17.1332 C34.2654667,15.2558 31.2018,15.2413333 29.2628,17.0991333 C27.3233333,18.9581 27.2069,22.0194333 29.0005333,24.0191 L32.6452,28 L4.66666667,28 C3.12060003,28 1.86666667,26.7460666 1.86666667,25.2 Z M13.8236,29.8666667 L7.18666667,32.4219 L6.2048,29.8666667 L13.8236,29.8666667 Z M13.0545333,39.8605667 C11.6116,40.4168333 9.99110001,39.6974667 9.43506667,38.2545333 L7.86053333,34.16 L19.0017333,29.8666667 L19.0017333,29.8610667 L34.356,29.8610667 L35.5691,31.1836 L13.0545333,39.8605667 Z M54.1333333,54.1333333 L39.2,54.1333333 L39.2,46.6666667 L54.1333333,46.6666667 L54.1333333,54.1333333 Z M54.1333333,44.8 L38.7846667,44.8 L38.3798333,44.1532 C36.1041333,40.5164666 36.0136,35.9230667 38.1434667,32.2 C38.3450667,31.8476666 38.2956,31.4052666 38.0212,31.1061333 L30.3727667,22.7621333 C29.2322333,21.5138 29.2964,19.5839 30.5174333,18.4146667 C31.7389333,17.2452 33.6697667,17.2643334 34.8672333,18.4571334 L49.7401333,33.3265333 L51.0598667,32.0068 L47.6065333,28.5534667 L48.5641333,28.1801333 C50.967,27.2531 52.1644666,24.5548333 51.24,22.1505667 L48.0809,13.9475 L51.1044333,16.9773333 C53.0364333,18.9088667 54.1258667,21.5264 54.1333333,24.2585 L54.1333333,44.8 Z" id="Shape" fill="#512DA8"></path>
                    <path d="M10.646747,13.0441767 L6.22072289,13.0441767 C4.89660402,13.0441767 3.82329317,11.9708659 3.82329317,10.646747 L3.82329317,6.22072289 C3.82329317,4.89660402 4.89660402,3.82329317 6.22072289,3.82329317 L10.646747,3.82329317 C11.9708659,3.82329317 13.0441767,4.89660402 13.0441767,6.22072289 L13.0441767,10.646747 C13.0441767,11.9708659 11.9708659,13.0441767 10.646747,13.0441767 Z M5.66746988,10.646747 C5.66746988,10.9521887 5.91528114,11.2 6.22072289,11.2 L10.646747,11.2 C10.9521887,11.2 11.2,10.9521887 11.2,10.646747 L11.2,9.35582329 L9.35582329,9.35582329 L9.35582329,7.51164659 L11.2,7.51164659 L11.2,6.22072289 C11.2,5.91528114 10.9521887,5.66746988 10.646747,5.66746988 L6.22072289,5.66746988 C5.91528114,5.66746988 5.66746988,5.91528114 5.66746988,6.22072289 L5.66746988,7.51164659 L7.51164659,7.51164659 L7.51164659,9.35582329 L5.66746988,9.35582329 L5.66746988,10.646747 Z M4.72289157,15.9678715 L8.54618474,15.9678715 L8.54618474,17.7670683 L4.72289157,17.7670683 L4.72289157,15.9678715 Z M4.72289157,21.5903614 L8.54618474,21.5903614 L8.54618474,23.3895582 L4.72289157,23.3895582 L4.72289157,21.5903614 Z M21.3654618,21.5903614 L25.188755,21.5903614 L25.188755,23.3895582 L21.3654618,23.3895582 L21.3654618,21.5903614 Z M10.1204819,15.9678715 L13.9437751,15.9678715 L13.9437751,17.7670683 L10.1204819,17.7670683 L10.1204819,15.9678715 Z M15.7429719,15.9678715 L19.5662651,15.9678715 L19.5662651,17.7670683 L15.7429719,17.7670683 L15.7429719,15.9678715 Z M21.3654618,15.9678715 L25.188755,15.9678715 L25.188755,17.7670683 L21.3654618,17.7670683 L21.3654618,15.9678715 Z M39.1325301,4.72289157 L40.9317269,4.72289157 L40.9317269,7.42168675 L39.1325301,7.42168675 L39.1325301,4.72289157 Z M35.5341365,4.72289157 L37.3333333,4.72289157 L37.3333333,7.42168675 L35.5341365,7.42168675 L35.5341365,4.72289157 Z M31.7108434,4.72289157 L33.5100402,4.72289157 L33.5100402,7.42168675 L31.7108434,7.42168675 L31.7108434,4.72289157 Z M28.1124498,4.72289157 L29.9116466,4.72289157 L29.9116466,7.42168675 L28.1124498,7.42168675 L28.1124498,4.72289157 Z" id="Combined-Shape" fill="#B11A83"></path>
                </g>
            </g>
        </g>
    </g>
</svg>