<?xml version="1.0" encoding="UTF-8"?>
<svg width="51px" height="46px" viewBox="0 0 51 46" version="1.1" xmlns="http://www.w3.org/2000/svg" xmlns:xlink="http://www.w3.org/1999/xlink">
    <!-- Generator: Sketch 54.1 (76490) - https://sketchapp.com -->
    <title>Group 10</title>
    <desc>Created with Sketch.</desc>
    <g id="Page-1" stroke="none" stroke-width="1" fill="none" fill-rule="evenodd">
        <g id="2" transform="translate(-776.000000, -1715.000000)" fill-rule="nonzero">
            <g id="Group-9" transform="translate(739.000000, 1654.953587)">
                <g id="Group-10" transform="translate(37.000000, 60.046413)">
                    <path d="M21.6596531,44.8964126 C21.6596531,44.329148 21.209476,43.8753363 20.6467548,43.8753363 L6.51733538,43.8753363 C4.04136181,43.8753363 2.03602785,41.8434978 2.03602785,39.3578475 L2.03602785,9.91165919 L8.17480529,9.91165919 L8.17480529,13.7587444 C8.17480529,14.326009 8.6249823,14.7798206 9.18770356,14.7798206 C9.75042483,14.7798206 10.2006018,14.326009 10.2006018,13.7587444 L10.2006018,9.91165919 L22.4065376,9.91165919 L22.4065376,13.7587444 C22.4065376,14.326009 22.8567147,14.7798206 23.4194359,14.7798206 C23.9821572,14.7798206 24.4323342,14.326009 24.4323342,13.7587444 L24.4323342,9.91165919 L30.5711116,9.91165919 L30.5711116,11.92287 C30.5711116,12.4901345 31.0212886,12.9439462 31.5840099,12.9439462 C32.1467312,12.9439462 32.5969082,12.4901345 32.5969082,11.92287 L32.5969082,8.89058296 C32.5969082,8.32331839 32.1467312,7.86950673 31.5840099,7.86950673 L24.4221029,7.86950673 C24.2481709,3.50672646 20.6774487,4.26325641e-14 16.2984541,4.26325641e-14 C11.9194595,4.26325641e-14 8.34873731,3.49641256 8.17480529,7.86950673 L1.01289828,7.86950673 C0.450177012,7.86950673 -1.98951966e-13,8.32331839 -1.98951966e-13,8.89058296 L-1.98951966e-13,39.3578475 C-1.98951966e-13,42.9780269 2.91591928,45.9174888 6.50710408,45.9174888 L20.6365235,45.9174888 C21.209476,45.9174888 21.6596531,45.4533632 21.6596531,44.8964126 Z M16.2984541,2.04215247 C19.5520061,2.04215247 22.2223743,4.6309417 22.3963063,7.86950673 L10.2006018,7.86950673 C10.3745339,4.6309417 13.0449021,2.04215247 16.2984541,2.04215247 Z" id="Shape" fill="#512DA8"></path>
                    <path d="M30.2641728,20.5556054 L30.2641728,21.7210762 L24.6881166,21.7210762 C24.1253953,21.7210762 23.6752183,22.1748879 23.6752183,22.7421525 L23.6752183,40.6573991 C23.6752183,43.5556054 26.0079537,45.9071749 28.8829478,45.9071749 L44.9358508,45.9071749 C47.8108449,45.9071749 50.1435804,43.5556054 50.1435804,40.6573991 L50.1435804,22.7421525 C50.1435804,22.1748879 49.6934034,21.7210762 49.1306821,21.7210762 L43.5546259,21.7210762 L43.5546259,20.5556054 C43.5546259,16.8632287 40.5773189,13.8515695 36.9042837,13.8515695 C33.2414798,13.8618834 30.2641728,16.8632287 30.2641728,20.5556054 Z M42.5417276,27.3215247 C43.1044489,27.3215247 43.5546259,26.867713 43.5546259,26.3004484 L43.5546259,23.7632287 L48.1177838,23.7632287 L48.1177838,40.6573991 C48.1177838,42.4313901 46.6854024,43.8650224 44.9358508,43.8650224 L28.8829478,43.8650224 C27.123165,43.8650224 25.7010149,42.4210762 25.7010149,40.6573991 L25.7010149,23.7632287 L30.2641728,23.7632287 L30.2641728,26.3004484 C30.2641728,26.867713 30.7143498,27.3215247 31.277071,27.3215247 C31.8397923,27.3215247 32.2899693,26.867713 32.2899693,26.3004484 L32.2899693,23.7632287 L41.5288294,23.7632287 L41.5288294,26.3004484 C41.5288294,26.867713 41.9790064,27.3215247 42.5417276,27.3215247 Z M41.5288294,20.5556054 L41.5288294,21.7210762 L32.2899693,21.7210762 L32.2899693,20.5556054 C32.2899693,17.9874439 34.3669224,15.893722 36.914515,15.893722 C39.4518763,15.9040359 41.5288294,17.9874439 41.5288294,20.5556054 Z" id="Shape" fill="#B11A83"></path>
                </g>
            </g>
        </g>
    </g>
</svg>