<?xml version="1.0" encoding="UTF-8"?>
<svg width="58px" height="61px" viewBox="0 0 58 61" version="1.1" xmlns="http://www.w3.org/2000/svg" xmlns:xlink="http://www.w3.org/1999/xlink">
    <!-- Generator: Sketch 54.1 (76490) - https://sketchapp.com -->
    <title>Group 10</title>
    <desc>Created with Sketch.</desc>
    <g id="Page-1" stroke="none" stroke-width="1" fill="none" fill-rule="evenodd">
        <g id="3" transform="translate(-775.000000, -1561.000000)" fill-rule="nonzero">
            <g id="Group-8" transform="translate(739.000000, 1509.000000)">
                <g id="Group-10" transform="translate(36.069673, 52.000000)">
                    <path d="M42.6316888,33.55 C49.3674541,33.555606 54.8264718,39.0144495 54.8320779,45.75 C54.8320779,52.4878739 49.3697776,57.95 42.6316888,57.95 C35.8935999,57.95 30.4312996,52.4878739 30.4312996,45.75 C30.4312996,39.0121261 35.8935999,33.55 42.6316888,33.55 Z M42.6316888,55.9166667 C48.2430486,55.9077103 52.789723,51.3611809 52.7986797,45.75 C52.7986797,40.135105 48.2467628,35.5833333 42.6316888,35.5833333 C37.0166147,35.5833333 32.4646978,40.135105 32.4646978,45.75 C32.4646978,51.364895 37.0166147,55.9166667 42.6316888,55.9166667 Z M46.5767615,46.6287536 L46.5767615,44.8606377 L43.4583269,44.8606377 L44.6663928,46.6287536 L46.5767615,46.6287536 Z M46.5767615,48.3968696 L45.8744588,48.3968696 L46.5449354,49.3781739 L46.5767615,49.3781739 L46.5767615,48.3968696 Z M47.7225006,46.6287536 L50.321631,46.6287536 L50.321631,48.3968696 L47.7225006,48.3968696 L47.7225006,51.0490435 L46.2903267,51.0490435 L44.4960809,48.3968696 L39.7023267,48.3968696 L39.7023267,51.0490435 L38.5565875,51.0490435 L38.5565875,48.3968696 L36.1767035,48.3968696 L36.1767035,46.6287536 L38.5565875,46.6287536 L38.5565875,44.8606377 L36.1767035,44.8606377 L36.1767035,43.0925217 L38.5565875,43.0925217 L38.5565875,39.7826087 L39.9887615,39.7826087 L42.2502609,43.0925217 L46.5767615,43.0925217 L46.5767615,39.7826087 L47.7225006,39.7826087 L47.7225006,43.0925217 L50.321631,43.0925217 L50.321631,44.8606377 L47.7225006,44.8606377 L47.7225006,46.6287536 Z M43.2999171,46.6287536 L42.1037533,44.8606377 L39.7023267,44.8606377 L39.7023267,46.6287536 L43.2999171,46.6287536 Z M40.9075895,43.0925217 L39.7341528,41.358 L39.7023267,41.358 L39.7023267,43.0925217 L40.9075895,43.0925217 Z" id="Combined-Shape" fill="#B11A83"></path>
                    <path d="M42.6316888,30.5 L42.6316888,3.05 C42.626664,1.36761715 41.264028,0.0050245717 39.5815915,2.13162821e-14 L15.1808131,2.13162821e-14 C13.4983766,0.0050245717 12.1357406,1.36761715 12.1307158,3.05 L12.1307158,15.3618333 C10.9145156,15.610979 9.83043881,16.2939256 9.08061854,17.2833333 C9.04283116,17.3294237 9.01200262,17.380803 8.98911563,17.4358333 L0.550513118,34.1193333 C0.135784586,34.9393703 -0.0503546539,35.855989 0.0116625966,36.7728333 L0.947025766,49.8878333 C0.957192757,49.9386667 0.957192757,49.9895 0.967359748,50.0403333 L2.96008998,58.9666667 L0.947025766,58.9666667 L0.947025766,61 L20.2643086,61 L20.2643086,58.9666667 L18.2817454,58.9666667 L19.1154386,56.4656667 L20.986165,54.6051667 C21.0595801,54.5263293 21.1212188,54.4372985 21.1691708,54.3408333 L22.1858699,52.3075 C22.2584458,52.1658557 22.2967526,52.0091513 22.2977068,51.85 L22.2977068,46.7666667 L27.4320372,46.7666667 C27.9891536,55.033635 35.0485614,61.3413166 43.3261417,60.9682757 C51.603722,60.5952348 58.0670981,53.6781299 57.8782936,45.3945631 C57.6894891,37.1109962 50.91767,30.4955374 42.6316888,30.5 L42.6316888,30.5 Z M32.4647351,2.03333333 C32.4671102,2.30782297 32.3524842,2.57034518 32.1495211,2.75516667 C31.9674401,2.94756541 31.7128615,3.0545588 31.4479987,3.05 L23.3144059,3.05 C22.7528985,3.05 22.2977068,2.59482283 22.2977068,2.03333333 L32.4647351,2.03333333 Z M19.4204484,41.1241667 C19.3074026,41.2886871 19.2471176,41.4837206 19.2476095,41.6833333 L19.2476095,44.7333333 C19.2485638,44.8924846 19.2868705,45.049189 19.3594464,45.1908333 L20.2643086,47.0106667 L20.2643086,51.606 L19.4306154,53.2835 L17.5090541,55.1948333 C17.3997469,55.3076025 17.3164604,55.4429388 17.2650463,55.5913333 L16.2483472,58.6413333 C16.2165918,58.7469401 16.1994871,58.8564068 16.1975122,58.9666667 L5.01382216,58.9666667 C5.01209449,58.891738 5.00530099,58.8170119 4.99348817,58.743 L2.97025697,49.6743333 L2.04506079,36.6305 C2.00641884,36.0798917 2.11521047,35.5289323 2.36023751,35.0343333 L10.7581721,18.4321667 C11.1191983,17.9935688 11.5940896,17.6629144 12.1307158,17.4765 L12.1307158,34.465 C11.888461,34.529378 11.6391693,34.5635265 11.3885255,34.5666667 L10.0973176,34.5666667 L10.0973176,36.6 L11.3885255,36.6 C12.7591375,36.599866 14.0716211,36.0462942 15.0283083,35.0648333 L22.8568913,28.0905 C23.6587174,27.3707699 24.8841802,27.4065487 25.6426468,28.1718333 L25.9069886,28.4361667 C26.5958281,29.1183953 26.7025282,30.1938979 26.1611634,30.9981667 L19.4204484,41.1241667 Z M21.4030116,44.7333333 L21.2810077,44.4893333 L21.2810077,41.9883333 L27.8590509,32.1266667 C28.9257208,30.510561 28.7135856,28.3680634 27.3507013,26.9925 L27.0863596,26.7281667 C25.5580224,25.2113323 23.1135665,25.144546 21.5046815,26.5756667 L14.164114,33.1128333 L14.164114,3.05 C14.164114,2.4885105 14.6193057,2.03333333 15.1808131,2.03333333 L20.2643086,2.03333333 C20.2693333,3.71571618 21.6319694,5.07830876 23.3144059,5.08333333 L31.4479987,5.08333333 C33.1325209,5.08333333 34.498096,3.71780182 34.498096,2.03333333 L39.5815915,2.03333333 C40.1430989,2.03333333 40.5982906,2.4885105 40.5982906,3.05 L40.5982906,30.6525 C33.4232283,31.6254747 27.9214866,37.5093892 27.4320372,44.7333333 L21.4030116,44.7333333 Z M42.6316888,58.9666667 C35.3320925,58.9666667 29.4146005,53.0493634 29.4146005,45.75 C29.4146005,38.4506366 35.3320925,32.5333333 42.6316888,32.5333333 C49.931285,32.5333333 55.848777,38.4506366 55.848777,45.75 C55.8420508,53.0465756 49.9284971,58.9599407 42.6316888,58.9666667 Z" id="Shape" fill="#512DA8"></path>
                    <path d="M33.4813969,12.6168333 L34.2032532,11.9051667 L32.7595405,10.4615 L32.190189,11.041 C29.4459264,8.53452433 25.2316248,8.57324555 22.5338838,11.1297226 C19.8361428,13.6861997 19.5711641,17.8922067 21.9267333,20.7670223 C24.2823026,23.641838 28.4584257,24.2091227 31.4955597,22.0668522 C34.5326936,19.9245816 35.3993726,15.8003096 33.4813969,12.6168333 Z M27.3812023,21.35 C25.110313,21.3639851 23.1056011,19.8701221 22.46974,17.6900966 C21.8338788,15.5100711 22.7211253,13.172747 24.6434577,11.963748 C26.5657901,10.7547489 29.0568596,10.9673723 30.7464763,12.4846667 L27.3812023,15.8498333 L26.0696605,14.5281667 L24.6259477,15.9718333 L26.6593459,18.0051667 C27.0602671,18.3983527 27.7021375,18.3983527 28.1030587,18.0051667 L31.9766822,14.1215 C32.7221064,15.6928931 32.6082232,17.5369845 31.675115,19.0047251 C30.7420068,20.4724658 29.1204622,21.3581307 27.3812023,21.35 L27.3812023,21.35 Z" id="Shape" fill="#B11A83"></path>
                </g>
            </g>
        </g>
    </g>
</svg>